<svg xmlns="http://www.w3.org/2000/svg" width="37" height="33" viewBox="0 0 37 33"><g><g><g><g><path fill="#a6a7a8" d="M24.666 24.667c-1.694 1.694-3.732 2.541-6.116 2.541-2.383 0-4.421-.847-6.115-2.541-1.695-1.694-2.541-3.733-2.541-6.116 0-2.383.847-4.422 2.54-6.116 1.695-1.694 3.733-2.54 6.116-2.54 2.384 0 4.422.846 6.116 2.54s2.541 3.733 2.541 6.116c0 2.383-.847 4.422-2.54 6.116zm10.986-18.27c-.966-.967-2.132-1.45-3.498-1.45h-4.328l-.985-2.628c-.245-.631-.693-1.175-1.343-1.633C24.847.23 24.18 0 23.498 0h-9.894c-.683 0-1.35.229-2 .686-.651.458-1.099 1.002-1.343 1.633l-.986 2.628H4.947c-1.366 0-2.532.483-3.498 1.45C.483 7.361 0 8.527 0 9.893v17.314c0 1.365.483 2.531 1.45 3.497.965.966 2.131 1.45 3.497 1.45h27.207c1.366 0 2.531-.484 3.497-1.45.966-.966 1.45-2.132 1.45-3.497V9.894c0-1.366-.483-2.532-1.45-3.498z"/></g><g><path fill="#a6a7a8" d="M18.55 12.986c-1.533 0-2.843.544-3.932 1.633-1.089 1.088-1.633 2.399-1.633 3.932s.544 2.844 1.633 3.932c1.089 1.089 2.4 1.633 3.932 1.633 1.533 0 2.844-.544 3.933-1.633 1.088-1.088 1.633-2.399 1.633-3.932s-.545-2.844-1.633-3.932c-1.089-1.09-2.4-1.633-3.933-1.633z"/></g></g></g></g></svg>