<svg width="443.5" height="437.4" xmlns="http://www.w3.org/2000/svg" xmlns:svg="http://www.w3.org/2000/svg">
 <style type="text/css">.st0{fill:#ffffff;}</style>
 <g>
  <title>Layer 1</title>
  <g id="svg_1">
   <g id="svg_2">
    <path class="st0" d="m149.8,157.2l0,0c-1.9,0 -3.8,0.1 -5.6,0.3c-4.5,0.5 -8.7,1.7 -12.7,3.5c-3.1,1.3 -6,3 -8.6,5c-1,0.8 -2,1.6 -3,2.4c-9.5,8.3 -15.5,20.5 -15.5,34c-0.1,25 20.2,45.4 45.2,45.5l0.2,0c12.1,0 23.4,-4.7 32,-13.2s13.4,-20 13.4,-32.2c-0.2,-25 -20.5,-45.3 -45.4,-45.3zm31,76.5c-8.3,8.3 -19.4,12.8 -31.2,12.8l-0.2,0c-24.1,-0.1 -43.7,-19.9 -43.8,-44.1l0,0c0,-12.8 5.5,-24.3 14.2,-32.3c1,-0.9 2,-1.7 3,-2.5c3.6,-2.8 7.7,-5 12,-6.6c3,-1.1 6.1,-1.8 9.3,-2.2c1.8,-0.2 3.6,-0.3 5.5,-0.3l0,0c11.7,0 22.7,4.5 31,12.8c8.4,8.3 13,19.4 13,31.2c0.2,11.8 -4.4,22.9 -12.8,31.2z" id="svg_3"/>
    <g id="svg_4">
     <path class="st0" d="m150.9,221.5c-0.3,-0.3 -0.7,-0.5 -1.1,-0.6c0,0 0.1,0.1 0.1,0.2c0.2,0.3 0.4,0.6 0.6,0.9s0.4,0.4 0.7,0.2c0.1,-0.1 0.2,-0.3 0.2,-0.5c-0.2,0 -0.4,-0.1 -0.5,-0.2zm-0.1,-22.5c0.2,0.3 0.3,0.2 0.4,0.1c-0.3,-0.1 -0.6,-0.3 -0.9,-0.4c-0.2,-0.1 -0.5,0.3 -0.7,0.5c0,0 0,0 0,0.1l0,0c0.3,-0.1 0.6,-0.2 1,-0.3c0,-0.1 0.2,-0.1 0.2,0zm32.2,9.7c-0.2,-2.7 -0.7,-5.3 -1.6,-7.8c-0.6,-1.5 -1.1,-3 -1.8,-4.4c-1.7,-3.3 -3.9,-6.3 -6.6,-9c-2.3,-2.2 -4.8,-4.2 -7.6,-5.6c-3.9,-2 -8,-3 -12.4,-3.1c-1.7,0 -3.4,0.1 -5.1,0.2c-0.8,0 -1.5,0.1 -2.3,0.2c-0.4,0 -0.5,0.2 -0.5,0.6c0,1.3 0,2.6 0,3.8c0,0.5 -0.2,0.7 -0.7,0.6l0,-26.3c0,-0.1 0,-0.3 0,-0.3c-4.5,0.5 -8.7,1.7 -12.7,3.5c-3.1,1.3 -6,3 -8.6,5c-1,0.8 -2,1.6 -3,2.4c0,0.6 0,1.1 0,1.7c0,11.9 0,23.7 0,35.6c0,2.9 0.1,5.9 0.3,8.8c0.1,1.9 0.4,3.8 0.8,5.6c0.6,2.8 1.5,5.5 2.7,8c1.1,2.3 2.5,4.4 4.1,6.4c1.3,1.6 2.7,3 4.3,4.2c3.1,2.4 6.5,4.3 10.2,5.5c2.6,0.8 5.2,1.4 7.9,1.4c1.1,0 2.3,0 3.5,-0.1c1.3,-0.1 2.6,-0.2 3.9,-0.5c2.7,-0.5 5.3,-1.4 7.8,-2.6c3.1,-1.6 5.9,-3.7 8.3,-6.1c1.5,-1.5 2.8,-3.2 4,-4.9c2.6,-3.8 4.2,-7.9 5,-12.4c0.3,-1.4 0.4,-2.9 0.5,-4.3c-0.3,-2.1 -0.2,-4.1 -0.4,-6.1zm-10.6,-11.1c0.2,0 0.4,-0.1 0.5,-0.1c0.3,-0.1 0.6,-0.1 0.8,-0.3c0.3,-0.2 0.1,-0.8 -0.2,-0.9c-0.6,-0.3 -0.7,-0.8 -0.7,-1.4l0,-1.1c0.4,0.5 0.8,1 1.2,1.7c0.1,0.1 0.1,0.3 0.1,0.5c0,0.3 0,0.6 0.1,0.9c0.1,0.5 0.1,0.6 -0.4,0.9c0.2,0.8 1.3,1.3 0.9,2.4l-0.1,0c-0.8,0 -0.8,0 -0.8,0.8c0,0.5 0,1 0,1.5c0,0.2 0,0.4 -0.1,0.5c-1.3,-1 -1.3,-2.6 -1.7,-3.9c0.4,-0.3 1,0.2 1.1,-0.5c0.2,-0.7 -0.5,-0.5 -0.7,-1zm-2.8,36.4c-0.1,-0.8 0.2,-1.4 0.6,-2c0.2,-0.5 0.6,-0.9 0.8,-1.3c0.1,-0.2 0.5,-0.5 0.2,-0.8s-0.7,-0.7 -1.3,-0.5c-0.7,0.2 -1.3,0.4 -2,0.6c-0.1,0 -0.3,0.1 -0.4,0.1c-1,0.3 -1.9,0.2 -2.4,-0.8c-0.2,-0.3 -0.4,-0.4 -0.8,-0.4c-1.5,0.1 -2.9,-0.1 -4.3,-0.8c-0.2,-0.1 -0.4,-0.1 -0.7,-0.1c-0.8,0.1 -1.5,0.2 -2.2,0.3c-0.3,0 -0.6,0.1 -1,0.2c-0.3,0 -0.7,0.1 -0.9,-0.1c-0.7,-0.4 -1.2,-0.1 -1.7,0.2c-0.1,0 -0.1,0.1 -0.2,0.2c-0.6,0.8 -1.4,0.9 -2.3,0.7c-0.9,-0.2 -1.3,-0.8 -1.1,-1.6c0.2,-0.9 0,-1.3 -0.8,-1.5c-0.4,-0.1 -0.8,-0.2 -1.2,-0.2c-0.5,0 -0.6,-0.2 -0.4,-0.7c0.1,-0.3 0.1,-0.6 0.2,-0.8c0.1,-0.5 0.1,-0.8 -0.4,-1c-0.3,-0.1 -1,0.1 -1.2,0.4c-0.5,0.6 -0.7,0.7 -1.4,0.4c-1.2,-0.5 -1.6,-2.2 -0.9,-3.2c0.8,-1.1 1.5,-1.3 2.7,-0.9c0.3,0.1 0.6,0.1 0.9,0c0.5,-0.2 1.1,-0.2 1.6,0c0.3,0.1 0.5,0.3 0.8,0.6c0,0 0.1,0.1 0.1,0.2c0.2,0.3 0.4,0.6 0.6,0.9c0.2,0.3 0.4,0.4 0.7,0.2c0.1,-0.1 0.2,-0.3 0.2,-0.5l0,-0.1c0,-0.3 -0.1,-0.5 -0.2,-0.8l0,0c-0.3,-0.8 -0.1,-1.7 0.6,-2.3c0.2,-0.1 0.4,-0.3 0.6,-0.5c0.6,-0.4 0.9,-0.9 1,-1.7c0.1,-0.9 0.4,-1.8 1.2,-2.3c0.3,-0.2 0.4,-0.7 0.6,-1c0.2,-0.4 0.5,-0.7 1,-0.4c0.1,0.1 0.2,0 0.3,-0.1c0.5,-0.3 0.9,-0.7 1.4,-1c0.2,-0.1 0.4,-0.3 0.2,-0.6c-0.1,-0.3 -0.3,-0.4 -0.6,-0.3c-0.4,0.1 -0.7,0.1 -0.8,-0.5c-0.1,-0.3 -0.6,-0.4 -0.9,-0.2c-0.2,0.2 -0.4,0.3 -0.7,0.4c0.6,-1.2 1.9,-1 2.9,-1.6c0.5,1 1,2 2.5,1.5c-0.1,-0.3 -0.3,-0.6 -0.5,-0.8c-0.6,-0.5 -1.2,-1 -1.7,-1.5c-0.1,0.1 -0.2,0 -0.2,-0.1c-0.4,-1.1 -1.3,-1.7 -2.1,-2.3l0,0c-0.1,-0.1 -0.2,-0.2 -0.4,-0.3l0,0c-0.4,0 -0.7,0 -1,-0.2c-0.7,-0.3 -1.3,-1 -2,-1.3c-0.9,-0.3 -1.2,-0.1 -1.1,0.8c0,0.7 -0.1,1.3 0.3,1.9l0,0.1c-0.2,0.7 -0.4,1.4 -0.6,2.2c-0.5,-0.3 -0.8,-0.7 -0.8,-1.2c0,-0.6 -0.3,-0.9 -0.8,-1c-0.2,-0.1 -0.5,-0.1 -0.7,-0.2c-0.5,-0.1 -0.7,-0.4 -0.7,-0.9c0,-0.9 0.3,-1.6 0.9,-2.2c0.5,-0.5 1.1,-1 1.6,-1.5c0.3,-0.3 0.8,-0.6 0.4,-1.2l0.1,0c0.8,0.2 1,0.4 1.1,1l0,0.1c0.1,0.7 -0.5,0.9 -0.9,1.4c0.3,0.1 0.5,0.1 0.7,0.2c0.5,0.1 1,0.3 1.4,0.4c0.1,0.1 0.3,0.1 0.4,0.1c0.4,0.1 0.7,-0.1 0.9,-0.7c0,-0.1 0.1,-0.2 0.1,-0.2c0.1,-0.2 0.4,-0.5 0.3,-0.7c-0.2,-0.4 -0.5,-0.8 -0.8,-1c-0.5,-0.3 -0.9,-0.6 -1,-1.1c0,-0.1 -0.1,-0.3 -0.2,-0.3c-0.6,-0.3 -1.2,-0.6 -1.8,-0.9c-0.3,-0.1 -0.6,-0.3 -0.9,-0.4c-0.2,-0.1 -0.5,0.3 -0.7,0.5c0,0 0,0 0,0.1l0,0c0,0.1 0.1,0.3 0.2,0.4c0.2,0.3 0.4,0.6 0.6,0.8c-0.5,0.3 -0.9,0.2 -1,-0.3l0,-0.1c0,-0.1 0,-0.3 -0.1,-0.5c0,-0.2 0,-0.5 -0.4,-0.5c-0.3,0 -0.4,0.2 -0.4,0.5c0,0.2 0,0.4 -0.1,0.5c-0.1,0.1 -0.2,0.2 -0.3,0.3c-0.1,-0.1 -0.2,-0.2 -0.2,-0.4c0,-0.3 0,-0.5 0,-0.8c-0.1,-0.5 -0.2,-1 -0.8,-1.2c-0.1,-0.1 -0.2,-0.2 -0.3,-0.3c-0.6,-0.8 -1.1,-0.8 -1.8,0c0.5,0.7 1,1.4 1.4,2.1l-0.1,0.1c-0.1,0 -0.1,-0.1 -0.2,-0.1c-0.9,-0.8 -1.9,-1.5 -2.8,-2.4c-0.5,-0.4 -0.8,-0.9 -0.8,-1.6c0,-0.1 0,-0.2 0,-0.4c-0.2,-1.1 -0.8,-1.5 -1.9,-1.1c-0.1,0 -0.1,0.1 -0.2,0.1c-0.7,-0.1 -1.3,0 -1.5,0.8c0,0.1 -0.4,0.1 -0.6,0.1c-0.6,-0.1 -1.1,0.1 -1.4,0.7c-0.1,0.3 -0.2,0.8 -0.5,1c-0.2,0.1 -0.7,-0.2 -1.1,-0.4c0,0.4 0.1,0.8 0.6,1c0.6,0.3 1.2,0.5 1.8,0.8c0.6,0.2 0.9,0.7 1,1.3c0.1,0.5 0.1,1 0,1.5c-0.2,1.3 -0.5,2.6 -0.8,3.8c-0.1,0.5 0.1,1 0.1,1.4c0,0.2 0,0.5 -0.1,0.6c-1.2,1.6 -1.7,3.5 -1.9,5.5c-0.2,2.4 0.8,4.5 1.4,6.7c0.1,0.3 0.5,0.6 0.7,0.8c0.1,0.1 0.4,0.2 0.6,0.2c-0.8,-0.9 -0.8,-2 -1,-3.1c0,0 0,-0.1 0.2,-0.2c0.1,0.3 0.2,0.6 0.3,0.9c0.3,0.9 0.7,1.8 1,2.7c0.2,0.6 0.4,1.1 0.3,1.8c-0.1,0.3 0.3,0.8 0.7,1.1c0.5,0.5 1.1,1 1.8,1.4c0.5,0.4 1.1,0.7 1.7,0.9c1.1,0.5 2.2,0.9 3.3,1.5c0.8,0.4 1.3,1.1 1.6,1.9c0.1,0.3 0.4,0.5 0.7,0.7c0.8,0.4 1.7,0.7 2.6,0.5c0.4,-0.1 0.6,0.1 0.6,0.6c0,0.3 0,0.5 0,0.8c0,0.5 -0.2,0.8 -0.7,0.9c-0.6,0.1 -0.8,0.7 -1,1.3c-0.2,0.8 0.1,1.5 0.9,1.9c1.2,0.6 2.1,1.6 3,2.6c0.1,0.2 0.3,0.3 0.5,0.4c0.3,0 0.4,0.2 0.4,0.5c-0.1,0.4 -0.2,0.8 -0.3,1.2c-0.1,0.1 -0.4,0.2 -0.6,0.2c-3.1,0.3 -6.2,0.2 -9.2,-0.6c-9.6,-2.4 -16.3,-8.2 -20,-17.3c-1.6,-3.8 -2.2,-7.8 -2,-11.8c0.7,-10.4 5.5,-18.2 14.5,-23.6c0.8,-0.4 1.5,-0.8 2.3,-1.2c0.5,-0.2 0.9,-0.1 1.1,0.3c0.2,0.4 0,1 -0.4,1.2c-0.1,0 -0.2,0.1 -0.3,0.1c-0.6,0.2 -1,0.5 -0.8,1.3c0.1,0.4 -0.2,0.8 -0.7,1c-0.5,0.3 -0.8,0.7 -1.2,1.1c-0.1,0 0,0.3 0,0.4c0.3,0.4 0.4,1.1 1.2,1c0,0 0.2,0.3 0.1,0.4c-0.1,0.3 -0.3,0.6 -0.5,0.9c0,0.1 0.1,0.1 0.1,0.2c0.3,-0.1 0.8,-0.1 1.2,-0.5c0.8,-0.7 1.5,-1.4 2.2,-2.1c0.1,-0.1 0.1,-0.4 0.1,-0.6c0,-0.4 0.2,-0.6 0.6,-0.6c0.3,0 0.6,0 0.8,-0.1c0.3,-0.1 0.6,-0.2 0.5,-0.7c-0.1,-0.4 0.2,-0.5 0.5,-0.5c0.4,-0.1 0.8,-0.2 1.2,-0.3c0.1,0 0.2,-0.2 0.2,-0.3c0,-0.6 0.4,-0.6 0.8,-0.7c0.3,0 0.6,0 0.8,-0.1c0.3,-0.1 0.5,-0.1 0.8,-0.3c0.5,-0.3 1,-0.2 1.3,0.3c0.1,0.1 0.2,0.2 0.3,0.3c1,0.4 2.1,0.4 3.1,-0.1c0.7,-0.3 1.4,-0.2 2,0c0.6,0.2 1,0.1 1.3,-0.3c0.3,-0.3 0.5,-0.3 0.8,-0.1c0.7,0.5 1.3,0.9 2,1.4c0.4,0.3 0.8,0.7 1.2,1c0.1,0.1 0.1,0.4 0.1,0.7c0.4,-0.1 0.8,-0.1 1.1,-0.3c0.3,-0.1 0.4,0 0.5,0.5c-0.3,0.1 -0.5,0.1 -0.8,0.2c-0.4,0.2 -0.8,0.4 -1.1,0.7c0.3,0.3 0.5,0.8 0.9,1.1c0.4,0.3 0.8,0.5 1.3,0.6c0.8,0.3 1.4,0.9 1.8,1.6c0.4,0.8 1.1,0.9 1.9,1.1c0.1,0 0.2,0 0.3,-0.1c0.3,-0.3 0.6,-0.7 1,-1c-0.8,-0.6 -1.6,-1.3 -2.3,-1.9c0,-0.3 0.1,-0.7 0.1,-1c0.5,0.3 1.1,0.5 1.7,0.8c0.1,0.1 0.2,0.2 0.2,0.4c0.1,0.2 0.1,0.5 0.2,0.7c0.7,0.9 1,1.9 1.1,2.9c0.1,0.3 0.4,0.5 0.6,0.8c0.1,0.2 0.3,0.4 0.5,0.6c0,0.1 -0.1,0.1 -0.1,0.2c-0.9,-0.5 -1.8,-1 -2.6,-1.5c-0.3,-0.2 -0.5,-0.2 -0.7,0c-0.1,0.1 -0.1,0.4 0,0.5c0.3,0.7 0.6,1.5 0.9,2.2c0.2,0.5 0.9,0.9 1.6,0.9c-0.3,-0.4 -0.5,-0.8 -0.8,-1.2c0.6,0.2 1.2,0.5 1.8,0.8c0.1,-0.5 0.1,-0.8 0.2,-1.2l0.1,0c0.1,0.2 0.2,0.5 0.2,0.7c0,0.3 0,0.5 0,0.8c0,0.5 0.3,0.9 0.8,0.9c0.2,0 0.4,0 0.6,0.1c0.5,0.2 0.6,0.6 0.3,1c-0.5,0.7 -0.5,1.1 0.1,1.7c0.1,0.1 0.2,0.3 0.2,0.4c0.1,0.2 0.2,0.5 0.4,0.7c0.4,0.3 0.8,0.7 1.2,0.2c0.2,0.7 0.5,1.4 0.7,2.1c0.1,0.5 0.3,1 0.3,1.5c-0.1,2.4 0.2,4.6 1.3,6.8c0.4,0.8 0.9,1.6 2,1.7c0.2,0 0.5,-0.1 0.6,-0.2c0.3,-0.4 0.5,-0.8 0.8,-1.1c0.2,-0.2 0.4,-0.4 0.7,-0.5c-1.9,7.4 -5.3,13.5 -10.9,18.5z" id="svg_5"/>
     <path class="st0" d="m157.2,205c-0.8,0.7 -2,0.8 -2.7,0c-0.3,-0.4 -0.9,-0.8 -0.8,-1.6c0,-0.3 -0.1,-0.6 -0.4,-0.8c-0.5,-0.4 -1.1,-0.8 -1.6,-1.2c-0.4,-0.3 -0.6,-0.7 -1,-1.1c-0.1,0.3 -0.2,0.8 -0.4,1.2c-0.4,-0.2 -0.8,-0.4 -1,-0.8c0,-0.1 0,-0.2 0,-0.4c0,-0.3 0.1,-0.7 0.1,-1c0,-0.1 0.1,-0.2 0.1,-0.2c0.3,-0.1 0.6,-0.2 1,-0.3c0.1,0 0.2,0 0.2,0.1c0.2,0.4 0.4,0.1 0.6,0c0.3,-0.2 0.6,-0.4 0.9,-0.5c0.5,-0.1 1,-0.1 1.4,0.2c0.3,0.2 0.6,0.3 0.9,0.4c0.9,0.3 1.5,0.9 2,1.6c0.2,0.2 0.1,0.9 -0.1,1c-0.3,0.2 -0.3,0.5 -0.3,0.8c0,0.4 0,0.9 -0.1,1.3c0,0.4 0.1,0.7 0.5,0.8c0.3,0.4 0.5,0.5 0.7,0.5z" id="svg_6"/>
     <path class="st0" d="m157.2,201.8c0,-0.1 0,-0.2 0.1,-0.3c0.3,-0.2 0.6,-0.5 1,-0.6c0.3,-0.1 0.7,0.3 0.6,0.6c-0.1,0.4 -0.3,0.8 -0.5,1.1c-0.2,0.4 -0.6,0.3 -0.8,0c-0.3,-0.3 -0.4,-0.6 -0.4,-0.8z" id="svg_7"/>
     <path class="st0" d="m148.6,220.5c0.2,-0.1 0.4,-0.2 0.6,-0.2c0.9,0.2 1.7,0.4 2.6,0.7c0.1,0 0.2,0.2 0.3,0.3c-0.1,0.1 -0.3,0.3 -0.4,0.3c-0.3,0.1 -0.6,0.1 -0.8,-0.1c-0.5,-0.4 -1.1,-0.7 -1.8,-0.8c-0.1,0 -0.3,-0.1 -0.4,-0.1c0,0 0,-0.1 -0.1,-0.1z" id="svg_8"/>
     <path class="st0" d="m154.2,221.9c-0.7,0.2 -1.2,0.2 -1.8,0c-0.1,0 -0.1,-0.2 -0.1,-0.3s0.1,-0.2 0.2,-0.2c0.3,-0.1 0.5,-0.1 0.8,-0.1c0.1,0 0.3,0.1 0.5,0.3s0.2,0.1 0.4,0.3z" id="svg_9"/>
    </g>
   </g>
   <path class="st0" d="m223.8,199.5c-2.1,-2.1 -4.7,-3.2 -7.7,-3.2c-0.4,0 -0.9,0 -1.6,0.1l0,7.6c0.5,-0.2 1,-0.4 1.5,-0.4c1,0 1.9,0.4 2.6,1.1c0.7,0.7 1.1,1.6 1.1,2.7c0,1 -0.4,2 -1.1,2.7c-0.7,0.7 -1.7,1.1 -2.7,1.1c-1.7,0 -3.8,-0.9 -3.8,-5.1l0,-17.7l-7.2,0l0,18c0,3.3 0.9,6 2.6,8c1,1.2 2.2,2.1 3.7,2.8c1.5,0.7 3.1,1 4.7,1c3.2,0 5.9,-1.1 8,-3.2c2.2,-2.1 3.2,-4.8 3.2,-7.9c-0.1,-2.9 -1.2,-5.5 -3.3,-7.6z" id="svg_10"/>
   <path class="st0" d="m248.6,199.2c-2,-2 -4.7,-3 -8.1,-3c-3.1,0 -5.7,1.1 -7.8,3.2s-3.2,4.8 -3.2,7.8c0,3.2 1.1,5.8 3.2,7.9c2.1,2.1 4.8,3.1 8,3.1c0.4,0 0.8,0 1.3,-0.1l0,-7.1c-0.5,0.2 -0.9,0.2 -1.4,0.2c-1.1,0 -2,-0.4 -2.7,-1.1c-0.7,-0.7 -1,-1.6 -1,-2.7c0,-1 0.4,-2 1.1,-2.7c0.8,-0.8 1.7,-1.1 2.7,-1.1c1.2,0 2.1,0.4 2.8,1.3c0.7,0.8 1,1.9 1,3.2l0,9.8l7.2,0l0,-10.4c-0.1,-3.5 -1.1,-6.3 -3.1,-8.3z" id="svg_11"/>
   <path class="st0" d="m263.5,196.9c0.7,-0.8 1.6,-1.2 2.7,-1.3l0,-7.6l-0.3,0c-1.9,0 -3.8,0.6 -5.6,1.7c-1.8,1.2 -3.1,2.7 -4,4.5c-0.7,1.4 -1,3.2 -1,5.2l0,18.4l7.2,0l0,-8.6l3.7,0l0,-7.6l-3.7,0l0,-1.4c0,-1.3 0.3,-2.5 1,-3.3z" id="svg_12"/>
   <path class="st0" d="m269.9,188.4l0,29.4l7.2,0l0,-29.4l-7.2,0z" id="svg_13"/>
   <path class="st0" d="m280.8,196.7l0,21.2l7.2,0l0,-21.2l-7.2,0zm6.2,-8.9c-0.7,-0.7 -1.5,-1 -2.5,-1s-1.8,0.3 -2.5,1c-0.7,0.7 -1.1,1.5 -1.1,2.4c0,1 0.3,1.8 1,2.4c0.7,0.7 1.5,1 2.6,1s1.9,-0.3 2.6,-1c0.7,-0.6 1,-1.4 1,-2.5c0,-0.9 -0.4,-1.7 -1.1,-2.3z" id="svg_14"/>
   <path class="st0" d="m291.8,188.4l0,29.4l7.2,0l0,-29.4l-7.2,0zm15.9,15.8l3.8,-7.5l-7.4,0l-3.5,7.2l5,14l8,0l-5.9,-13.7z" id="svg_15"/>
   <path class="st0" d="m323.1,206.9c0,0.4 0,0.8 0.2,1.2l11.7,0c0,-0.4 0,-0.7 0,-1c0,-3 -1,-5.6 -3.1,-7.7c-2.1,-2.1 -4.7,-3.1 -7.7,-3.1c-3.1,0 -5.8,1.1 -8,3.2c-2.2,2.1 -3.2,4.8 -3.2,7.9c0,3.1 1.1,5.8 3.2,7.9c2.1,2.1 4.8,3.2 8,3.2c2.4,0 4.6,-0.7 6.6,-2.1l-4,-4.8c-0.7,0.6 -1.5,1 -2.4,1c-1.2,0 -2.2,-0.5 -3,-1.6c-0.7,-1 -1.1,-2.3 -1.1,-3.9c0,-1.5 0.4,-2.8 1.1,-3.8c0.8,-1 1.8,-1.6 3,-1.6c1.9,0 3,1 3.4,3l0.1,0.7l-4.5,0c-0.2,0.4 -0.3,0.9 -0.3,1.5z" id="svg_16"/>
  </g>
 </g>
</svg>