<svg id="Group_410" data-name="Group 410" xmlns="http://www.w3.org/2000/svg" width="36.258" height="36.218" viewBox="0 0 36.258 36.218">
  <path id="Path_103" data-name="Path 103" d="M122.529,157.2h0a20.427,20.427,0,0,0-2.236.12,16.768,16.768,0,0,0-5.071,1.4,15.443,15.443,0,0,0-3.434,2l-1.2.958a18.112,18.112,0,0,0,11.86,31.746h.08a18.109,18.109,0,1,0,0-36.218Zm12.379,30.548a17.481,17.481,0,0,1-12.459,5.111h-.08a17.666,17.666,0,0,1-17.49-17.61h0a17.48,17.48,0,0,1,5.67-12.9c.4-.359.8-.679,1.2-1a18.081,18.081,0,0,1,4.792-2.636,16.771,16.771,0,0,1,3.714-.878,19.7,19.7,0,0,1,2.2-.12h0a17.587,17.587,0,0,1,17.57,17.57A17,17,0,0,1,134.908,187.748Z" transform="translate(-104.4 -157.2)" fill="#fff"/>
  <g id="Group_409" data-name="Group 409" transform="translate(6.269 0.16)">
    <path id="Path_104" data-name="Path 104" d="M132.4,183.117a.952.952,0,0,0-.439-.24.139.139,0,0,1,.04.08l.24.359c.08.12.16.16.28.08a.305.305,0,0,0,.08-.2A.305.305,0,0,1,132.4,183.117Zm-.04-8.985c.08.12.12.08.16.04-.12-.04-.24-.12-.359-.16-.08-.04-.2.12-.28.2v.04h0c.12-.04.24-.08.4-.12C132.279,174.092,132.359,174.092,132.359,174.132Zm12.858,3.873a11.679,11.679,0,0,0-.639-3.115c-.24-.6-.439-1.2-.719-1.757a14.364,14.364,0,0,0-2.636-3.594,12.681,12.681,0,0,0-3.035-2.236,11.216,11.216,0,0,0-4.952-1.238c-.679,0-1.358.04-2.037.08a7.132,7.132,0,0,0-.918.08c-.16,0-.2.08-.2.24v1.517c0,.2-.08.28-.28.24V157.6a16.767,16.767,0,0,0-5.071,1.4,15.443,15.443,0,0,0-3.434,2l-1.2.958v14.895c0,1.158.04,2.356.12,3.514a13.714,13.714,0,0,0,.319,2.236,14.33,14.33,0,0,0,1.078,3.195,13.237,13.237,0,0,0,1.637,2.556,9.737,9.737,0,0,0,1.717,1.677,13.429,13.429,0,0,0,4.073,2.2,10.7,10.7,0,0,0,3.155.559c.439,0,.918,0,1.4-.04a10.39,10.39,0,0,0,1.557-.2,12.426,12.426,0,0,0,3.115-1.038,13.412,13.412,0,0,0,3.314-2.436,14.869,14.869,0,0,0,1.6-1.957,13.281,13.281,0,0,0,2.2-6.669C145.257,179.6,145.3,178.8,145.217,178.005Zm-4.233-4.432a1.731,1.731,0,0,0,.2-.04c.12-.04.24-.04.319-.12.12-.08.04-.319-.08-.359a.536.536,0,0,1-.28-.559v-.439a4.991,4.991,0,0,1,.479.679.3.3,0,0,1,.04.2,1.105,1.105,0,0,0,.04.359c.04.2.04.24-.16.359.08.319.519.519.359.958h-.04c-.319,0-.319,0-.319.319v.6a.3.3,0,0,1-.04.2c-.519-.4-.519-1.038-.679-1.557.16-.12.4.08.439-.2C141.344,173.693,141.064,173.772,140.984,173.573Zm-1.118,14.535a1.122,1.122,0,0,1,.24-.8,5.915,5.915,0,0,1,.319-.519c.04-.08.2-.2.08-.319a.492.492,0,0,0-.519-.2c-.28.08-.519.16-.8.24-.04,0-.12.04-.16.04a.716.716,0,0,1-.958-.319.324.324,0,0,0-.319-.16,3.224,3.224,0,0,1-1.717-.319.592.592,0,0,0-.28-.04c-.319.04-.6.08-.879.12a1.758,1.758,0,0,0-.4.08c-.12,0-.28.04-.359-.04a.6.6,0,0,0-.679.08c-.04,0-.04.04-.08.08a.815.815,0,0,1-.918.28.5.5,0,0,1-.439-.639c.08-.359,0-.519-.319-.6a2,2,0,0,0-.479-.08c-.2,0-.24-.08-.16-.28.04-.12.04-.24.08-.319.04-.2.04-.319-.16-.4a.549.549,0,0,0-.479.16c-.2.24-.28.28-.559.16a.9.9,0,0,1-.359-1.278.812.812,0,0,1,1.078-.359.554.554,0,0,0,.359,0,.882.882,0,0,1,.639,0,.838.838,0,0,1,.319.24.139.139,0,0,1,.04.08l.24.359c.08.12.16.16.28.08a.3.3,0,0,0,.08-.2v-.04a.94.94,0,0,0-.08-.319h0a.815.815,0,0,1,.24-.918,1.059,1.059,0,0,0,.24-.2.864.864,0,0,0,.4-.679,1.172,1.172,0,0,1,.479-.918c.12-.08.16-.28.24-.4.08-.16.2-.28.4-.16.04.04.08,0,.12-.04.2-.12.359-.28.559-.4.08-.04.16-.12.08-.24a.167.167,0,0,0-.24-.12c-.16.04-.28.04-.319-.2a.252.252,0,0,0-.359-.08.644.644,0,0,1-.28.16c.24-.479.759-.4,1.158-.639.2.4.4.8,1,.6a.869.869,0,0,0-.2-.319c-.24-.2-.479-.4-.679-.6-.04.04-.08,0-.08-.04a2.087,2.087,0,0,0-.839-.918h0a.55.55,0,0,0-.16-.12h0a.657.657,0,0,1-.4-.08c-.28-.12-.519-.4-.8-.519-.359-.12-.479-.04-.439.319a1.23,1.23,0,0,0,.12.759v.04c-.08.28-.16.559-.24.879a.563.563,0,0,1-.319-.479.363.363,0,0,0-.319-.4c-.08-.04-.2-.04-.28-.08a.318.318,0,0,1-.28-.359,1.174,1.174,0,0,1,.359-.878c.2-.2.439-.4.639-.6.12-.12.319-.24.16-.479h.04c.319.08.4.16.439.4v.04c.04.28-.2.359-.359.559a2.543,2.543,0,0,1,.28.08c.2.04.4.12.559.16a.24.24,0,0,0,.16.04c.16.04.28-.04.359-.28a.139.139,0,0,1,.04-.08c.04-.08.16-.2.12-.28a1.087,1.087,0,0,0-.319-.4c-.2-.12-.359-.24-.4-.439,0-.04-.04-.12-.08-.12l-.719-.359c-.12-.04-.24-.12-.359-.16-.08-.04-.2.12-.28.2v.04h0a.3.3,0,0,0,.08.16,2.213,2.213,0,0,0,.24.319c-.2.12-.359.08-.4-.12v-.04a.434.434,0,0,0-.04-.2c0-.08,0-.2-.16-.2-.12,0-.16.08-.16.2a.3.3,0,0,1-.04.2l-.12.12a.207.207,0,0,1-.08-.16v-.319c-.04-.2-.08-.4-.319-.479l-.12-.12c-.24-.319-.439-.319-.719,0,.2.28.4.559.559.839l-.04.04c-.04,0-.04-.04-.08-.04-.359-.319-.759-.6-1.118-.958a.776.776,0,0,1-.319-.639v-.16c-.08-.439-.319-.6-.759-.439-.04,0-.04.04-.08.04-.28-.04-.519,0-.6.319,0,.04-.16.04-.24.04a.486.486,0,0,0-.559.28c-.04.12-.08.319-.2.4-.08.04-.28-.08-.439-.16a.379.379,0,0,0,.24.4c.24.12.479.2.719.319a.607.607,0,0,1,.4.519,1.513,1.513,0,0,1,0,.6c-.08.519-.2,1.038-.319,1.517a2.455,2.455,0,0,0,.04.559c0,.08,0,.2-.04.24a4.27,4.27,0,0,0-.759,2.2,7.63,7.63,0,0,0,.559,2.675c.04.12.2.24.28.319a.428.428,0,0,0,.24.08,2.28,2.28,0,0,1-.4-1.238s0-.04.08-.08l.12.359c.12.359.28.719.4,1.078a1.442,1.442,0,0,1,.12.719c-.04.12.12.319.28.439a3.444,3.444,0,0,0,.719.559,2.22,2.22,0,0,0,.679.359c.439.2.879.359,1.318.6a1.331,1.331,0,0,1,.639.759.629.629,0,0,0,.28.28,1.58,1.58,0,0,0,1.038.2q.24-.06.24.24v.319a.318.318,0,0,1-.28.359c-.24.04-.319.28-.4.519a.628.628,0,0,0,.359.759,4.243,4.243,0,0,1,1.2,1.038.4.4,0,0,0,.2.16c.12,0,.16.08.16.2l-.12.479a.428.428,0,0,1-.24.08,10.329,10.329,0,0,1-3.674-.24,11.1,11.1,0,0,1-7.986-6.908,10.68,10.68,0,0,1-.8-4.712,11.265,11.265,0,0,1,5.79-9.424c.319-.16.6-.319.918-.479.2-.08.359-.04.439.12a.384.384,0,0,1-.16.479c-.04,0-.08.04-.12.04-.24.08-.4.2-.319.519.04.16-.08.319-.28.4a2.507,2.507,0,0,0-.479.439c-.04,0,0,.12,0,.16.12.16.16.439.479.4,0,0,.08.12.04.16a1.618,1.618,0,0,1-.2.359c0,.04.04.04.04.08a.948.948,0,0,0,.479-.2c.319-.28.6-.559.878-.839.04-.04.04-.16.04-.24a.212.212,0,0,1,.24-.24.778.778,0,0,0,.319-.04c.12-.04.24-.08.2-.28-.04-.16.08-.2.2-.2l.479-.12c.04,0,.08-.08.08-.12,0-.24.16-.24.319-.28a.779.779,0,0,0,.319-.04,1.044,1.044,0,0,0,.319-.12.349.349,0,0,1,.519.12l.12.12a1.491,1.491,0,0,0,1.238-.04,1.1,1.1,0,0,1,.8,0,.41.41,0,0,0,.519-.12.211.211,0,0,1,.319-.04c.28.2.519.359.8.559.16.12.319.28.479.4.04.04.04.16.04.28a1.416,1.416,0,0,0,.439-.12c.12-.04.16,0,.2.2-.12.04-.2.04-.319.08a1.649,1.649,0,0,0-.439.28c.12.12.2.319.359.439a1.237,1.237,0,0,0,.519.24,1.409,1.409,0,0,1,.719.639c.16.319.439.359.759.439a.147.147,0,0,0,.12-.04,3.766,3.766,0,0,1,.4-.4c-.319-.24-.639-.519-.918-.759,0-.12.04-.28.04-.4.2.12.439.2.679.319a.207.207,0,0,1,.08.16c.04.08.04.2.08.28a2.19,2.19,0,0,1,.439,1.158c.04.12.16.2.24.319a1.059,1.059,0,0,0,.2.24c0,.04-.04.04-.04.08-.359-.2-.719-.4-1.038-.6-.12-.08-.2-.08-.28,0a.181.181,0,0,0,0,.2c.12.28.24.6.359.878a.706.706,0,0,0,.639.359c-.12-.16-.2-.319-.319-.479a5.659,5.659,0,0,1,.719.319c.04-.2.04-.319.08-.479h.04a.74.74,0,0,1,.08.28v.319a.326.326,0,0,0,.319.359.507.507,0,0,1,.24.04.238.238,0,0,1,.12.4c-.2.28-.2.439.04.679a.3.3,0,0,1,.08.16,1,1,0,0,0,.16.28c.16.12.319.28.479.08.08.28.2.559.28.839a3.183,3.183,0,0,1,.12.6,5.337,5.337,0,0,0,.519,2.715,1,1,0,0,0,.8.679.428.428,0,0,0,.24-.08,4.183,4.183,0,0,1,.319-.439.716.716,0,0,1,.28-.2A14.258,14.258,0,0,1,139.866,188.108Z" transform="translate(-120.1 -157.6)" fill="#fff"/>
    <path id="Path_105" data-name="Path 105" d="M152.455,201a.759.759,0,0,1-1.078,0c-.12-.16-.359-.319-.319-.639a.363.363,0,0,0-.16-.319c-.2-.16-.439-.319-.639-.479a4.37,4.37,0,0,1-.4-.439,3.357,3.357,0,0,1-.16.479.8.8,0,0,1-.4-.319v-.16c0-.12.04-.28.04-.4a.139.139,0,0,1,.04-.08c.12-.04.24-.08.4-.12.04,0,.08,0,.08.04.08.16.16.04.24,0a1.619,1.619,0,0,1,.359-.2.68.68,0,0,1,.559.08,1.418,1.418,0,0,0,.359.16,1.6,1.6,0,0,1,.8.639.36.36,0,0,1-.04.4.331.331,0,0,0-.12.319,2.277,2.277,0,0,1-.04.519c0,.16.04.28.2.319C152.295,200.96,152.375,201,152.455,201Z" transform="translate(-137.64 -182.072)" fill="#fff"/>
    <path id="Path_106" data-name="Path 106" d="M157.2,201.25a.147.147,0,0,1,.04-.12,1.33,1.33,0,0,1,.4-.24.212.212,0,0,1,.24.24,1.476,1.476,0,0,1-.2.439c-.08.16-.24.12-.319,0A.477.477,0,0,1,157.2,201.25Z" transform="translate(-142.385 -183.6)" fill="#fff"/>
    <path id="Path_107" data-name="Path 107" d="M148.6,220.38a.568.568,0,0,1,.24-.08,9.988,9.988,0,0,1,1.038.28c.04,0,.08.08.12.12-.04.04-.12.12-.16.12a.3.3,0,0,1-.319-.04,1.48,1.48,0,0,0-.719-.319c-.04,0-.12-.04-.16-.04A.039.039,0,0,0,148.6,220.38Z" transform="translate(-137.219 -195.263)" fill="#fff"/>
    <path id="Path_108" data-name="Path 108" d="M153.059,221.54a1.106,1.106,0,0,1-.719,0c-.04,0-.04-.08-.04-.12a.086.086,0,0,1,.08-.08.879.879,0,0,1,.319-.04.365.365,0,0,1,.2.12C152.979,221.5,152.979,221.46,153.059,221.54Z" transform="translate(-139.442 -195.863)" fill="#fff"/>
  </g>
</svg>
