<svg id="balance" xmlns="http://www.w3.org/2000/svg" width="26" height="21.708" viewBox="0 0 26 21.708">
  <g id="Group_78" data-name="Group 78" transform="translate(0 0)">
    <path id="Path_28" data-name="Path 28" d="M2.384,26.9h15.9a2.294,2.294,0,0,1,2.291,2.29v1.879H2.178A2.069,2.069,0,0,1,.1,29.056,2.284,2.284,0,0,1,2.384,26.9Z" transform="translate(-0.094 -26.898)" fill="#f9f9f9"/>
    <g id="Group_77" data-name="Group 77" transform="translate(0 4.338)">
      <path id="Path_29" data-name="Path 29" d="M23.708,82.09H21.3a2.349,2.349,0,0,0-.271.017.515.515,0,0,1-.058,0,.531.531,0,0,1-.09-.016.487.487,0,0,1-.053,0H2.084c-.1,0-.2-.006-.3-.015-.033,0-.065-.01-.1-.014-.067-.009-.133-.017-.2-.029-.038-.007-.076-.019-.113-.028-.058-.014-.116-.026-.172-.043-.04-.012-.079-.028-.119-.041s-.1-.035-.155-.055-.078-.035-.116-.053-.1-.043-.145-.068S.59,81.7.552,81.681.462,81.63.419,81.6s-.073-.051-.109-.076-.083-.058-.122-.09-.068-.056-.1-.086S.028,81.3,0,81.278V96.357a2.293,2.293,0,0,0,2.291,2.29H23.709A2.294,2.294,0,0,0,26,96.357V84.381A2.3,2.3,0,0,0,23.708,82.09ZM19.5,93.186a2.513,2.513,0,1,1,2.512-2.513A2.515,2.515,0,0,1,19.5,93.186Z" transform="translate(0 -81.278)" fill="#f9f9f9"/>
      <path id="Path_30" data-name="Path 30" d="M226.742,179.847a1.531,1.531,0,1,0,1.531,1.532A1.533,1.533,0,0,0,226.742,179.847Z" transform="translate(-207.243 -171.983)" fill="#f9f9f9"/>
    </g>
  </g>
</svg>
