<svg xmlns="http://www.w3.org/2000/svg" width="34.625" height="34.625" viewBox="0 0 34.625 34.625">
  <g id="Group_602" data-name="Group 602" transform="translate(-9.5 -9.5)">
    <path id="Path_138" data-name="Path 138" d="M11.777,10A1.779,1.779,0,0,0,10,11.777v5.685a.41.41,0,0,0,.82,0V11.777a.958.958,0,0,1,.957-.957h6.159a.41.41,0,0,0,0-.82H11.777Z" fill="#f9f9f9" stroke="#f9f9f9" stroke-width="1"/>
    <path id="Path_139" data-name="Path 139" d="M393.93,382.025a.41.41,0,0,0-.41.41v6.013a.958.958,0,0,1-.957.957h-5.711a.41.41,0,1,0,0,.82h5.711a1.779,1.779,0,0,0,1.777-1.777v-6.013A.41.41,0,0,0,393.93,382.025Z" transform="translate(-350.715 -346.6)" fill="#f9f9f9" stroke="#f9f9f9" stroke-width="1"/>
    <path id="Path_140" data-name="Path 140" d="M394.128,10h-5.6a.41.41,0,1,0,0,.82h5.6a.958.958,0,0,1,.957.957v5.4a.41.41,0,0,0,.82,0v-5.4A1.779,1.779,0,0,0,394.128,10Z" transform="translate(-352.28)" fill="#f9f9f9" stroke="#f9f9f9" stroke-width="1"/>
    <path id="Path_141" data-name="Path 141" d="M17.075,399.58h-5.3a.958.958,0,0,1-.957-.957v-5.266a.41.41,0,1,0-.82,0v5.266a1.779,1.779,0,0,0,1.777,1.777h5.3a.41.41,0,1,0,0-.82Z" transform="translate(0 -356.775)" fill="#f9f9f9" stroke="#f9f9f9" stroke-width="1"/>
    <path id="Path_142" data-name="Path 142" d="M118.468,113.666v-18.7a1.779,1.779,0,0,0-1.777-1.777H98.47a1.779,1.779,0,0,0-1.777,1.777v18.7a1.779,1.779,0,0,0,1.777,1.777h18.221A1.779,1.779,0,0,0,118.468,113.666Zm-20.955,0v-18.7a.958.958,0,0,1,.957-.957h18.221a.958.958,0,0,1,.957.957v18.7a.958.958,0,0,1-.957.957H98.47A.958.958,0,0,1,97.513,113.666Z" transform="translate(-80.768 -77.504)" fill="#f9f9f9" stroke="#f9f9f9" stroke-width="1"/>
  </g>
</svg>
