<svg id="comment_2" data-name="comment 2" xmlns="http://www.w3.org/2000/svg" width="14.122" height="12.993" viewBox="0 0 14.122 12.993">
  <path id="Path_45" data-name="Path 45" d="M12.181-1.332H1.942A1.944,1.944,0,0,0,0,.61V6.876A1.944,1.944,0,0,0,1.935,8.817v2.843L6.022,8.817h6.16a1.944,1.944,0,0,0,1.942-1.942V.61a1.944,1.944,0,0,0-1.942-1.942ZM13.3,6.876A1.115,1.115,0,0,1,12.181,7.99H5.762l-3,2.087V7.99H1.942A1.115,1.115,0,0,1,.828,6.876V.61A1.115,1.115,0,0,1,1.942-.5H12.181A1.115,1.115,0,0,1,13.3.61Zm0,0" transform="translate(-0.001 1.332)" fill="#2b2b2b"/>
  <path id="Path_46" data-name="Path 46" d="M171.293,131.172h6.563V132h-6.563Zm0,0" transform="translate(-167.513 -127.361)" fill="#2b2b2b"/>
  <path id="Path_47" data-name="Path 47" d="M171.293,211.172h6.563V212h-6.563Zm0,0" transform="translate(-167.513 -205.596)" fill="#2b2b2b"/>
</svg>
