<svg id="facebook" xmlns="http://www.w3.org/2000/svg" width="30.914" height="30.914" viewBox="0 0 30.914 30.914">
  <path id="Path_70" data-name="Path 70" d="M291.243,508.668q-.193.031-.388.058Q291.05,508.7,291.243,508.668Zm0,0" transform="translate(-273.293 -477.955)" fill="#efeef2"/>
  <path id="Path_71" data-name="Path 71" d="M299.524,507.793l-.185.032Zm0,0" transform="translate(-281.265 -477.133)" fill="#efeef2"/>
  <path id="Path_72" data-name="Path 72" d="M278.064,510.34q-.226.025-.454.045Q277.838,510.366,278.064,510.34Zm0,0" transform="translate(-260.848 -479.526)" fill="#efeef2"/>
  <path id="Path_73" data-name="Path 73" d="M286.664,509.738l-.218.027Zm0,0" transform="translate(-269.15 -478.96)" fill="#efeef2"/>
  <path id="Path_74" data-name="Path 74" d="M306.827,506.41l-.163.034Zm0,0" transform="translate(-288.148 -475.833)" fill="#efeef2"/>
  <path id="Path_75" data-name="Path 75" d="M324.616,502.113l-.132.037Zm0,0" transform="translate(-304.892 -471.796)" fill="#efeef2"/>
  <path id="Path_76" data-name="Path 76" d="M319.2,503.543l-.143.037Zm0,0" transform="translate(-299.794 -473.139)" fill="#efeef2"/>
  <path id="Path_77" data-name="Path 77" d="M312.219,505.254l-.152.034Zm0,0" transform="translate(-293.224 -474.747)" fill="#efeef2"/>
  <path id="Path_78" data-name="Path 78" d="M273.724,511.09l-.244.018Zm0,0" transform="translate(-256.968 -480.231)" fill="#efeef2"/>
  <path id="Path_79" data-name="Path 79" d="M30.914,15.457A15.457,15.457,0,1,0,15.457,30.914c.091,0,.181,0,.272,0V18.878H12.408v-3.87h3.321V12.16c0-3.3,2.016-5.1,4.963-5.1a27.337,27.337,0,0,1,2.977.152v3.452H21.637c-1.6,0-1.913.762-1.913,1.88v2.465h3.833l-.5,3.87H19.724V30.317a15.465,15.465,0,0,0,11.19-14.86Zm0,0" fill="#efeef2"/>
  <path id="Path_80" data-name="Path 80" d="M265.375,511.43q-.241.016-.484.024Q265.134,511.446,265.375,511.43Zm0,0" transform="translate(-248.897 -480.55)" fill="#efeef2"/>
  <path id="Path_81" data-name="Path 81" d="M260.761,511.836l-.257.006Zm0,0" transform="translate(-244.775 -480.932)" fill="#efeef2"/>
</svg>
