<svg xmlns="http://www.w3.org/2000/svg" width="29.862" height="24.551" viewBox="0 0 29.862 24.551">
  <g id="Group_407" data-name="Group 407" transform="translate(-999 -15)">
    <g id="Group_405" data-name="Group 405" transform="translate(999 15)">
      <ellipse id="Ellipse_4" data-name="Ellipse 4" cx="5.181" cy="5.181" rx="5.181" ry="5.181" transform="translate(5.181)" fill="#f9f9f9"/>
      <path id="Path_13" data-name="Path 13" d="M10.362,221.867A10.362,10.362,0,0,0,0,232.229H20.725A10.362,10.362,0,0,0,10.362,221.867Z" transform="translate(0 -208.679)" fill="#f9f9f9"/>
    </g>
    <g id="Group_406" data-name="Group 406" transform="translate(1013 21.663)">
      <g id="Ellipse_4-2" data-name="Ellipse 4" transform="translate(3.715)" fill="#f9f9f9" stroke="#9100ff" stroke-width="1">
        <ellipse cx="3.715" cy="3.715" rx="3.715" ry="3.715" stroke="none"/>
        <ellipse cx="3.715" cy="3.715" rx="4.215" ry="4.215" fill="none"/>
      </g>
      <g id="Path_13-2" data-name="Path 13" transform="translate(0 -212.41)" fill="#f9f9f9">
        <path d="M 15.36164379119873 229.7977905273438 L 14.86164379119873 229.7977905273438 L 3.326110800117021e-06 229.7977905273438 L -0.4999966621398926 229.7977905273438 L -0.4999966621398926 229.2977905273438 C -0.4999966621398926 224.9247589111328 3.057763338088989 221.3670349121094 7.430853366851807 221.3670349121094 C 11.80390357971191 221.3670349121094 15.36164379119873 224.9247589111328 15.36164379119873 229.2977905273438 L 15.36164379119873 229.7977905273438 Z" stroke="none"/>
        <path d="M 7.430853366851807 221.8670349121094 C 3.326892852783203 221.8670349121094 2.86102294921875e-06 225.1939086914063 2.86102294921875e-06 229.2977905273438 L 14.86164379119873 229.2977905273438 C 14.86164379119873 225.1939086914063 11.53475379943848 221.8670349121094 7.430853366851807 221.8670349121094 M 7.430853366851807 220.8670349121094 C 12.07960319519043 220.8670349121094 15.86164283752441 224.6490478515625 15.86164283752441 229.2977905273438 L 15.86164283752441 230.2977905273438 L 14.86164379119873 230.2977905273438 L 2.86102294921875e-06 230.2977905273438 L -0.9999971389770508 230.2977905273438 L -0.9999971389770508 229.2977905273438 C -0.9999971389770508 224.6490478515625 2.782063484191895 220.8670349121094 7.430853366851807 220.8670349121094 Z" stroke="none" fill="#9100ff"/>
      </g>
    </g>
  </g>
</svg>
