<svg xmlns="http://www.w3.org/2000/svg" width="576.622" height="465.331" viewBox="0 0 576.622 465.331">
  <g id="Group_621" data-name="Group 621" transform="translate(-141.684 -272.869)" opacity="0.87">
    <g id="Group_604" data-name="Group 604" transform="translate(289.317 295.738)">
      <path id="Path_143" data-name="Path 143" d="M443.3,277.211a181.541,181.541,0,1,0,136.154,217.66A181.535,181.535,0,0,0,443.3,277.211Z" transform="translate(-220.961 -272.536)" fill="#6dc8d6"/>
      <path id="Path_144" data-name="Path 144" d="M371.533,277.208a180.825,180.825,0,0,0-75.608-1.292c2.045.4,4.092.818,6.141,1.292a181.561,181.561,0,0,1-5.887,355.1,181.53,181.53,0,0,0,75.353-355.1Z" transform="translate(-149.219 -272.533)" fill="#47bbc6"/>
      <path id="Path_145" data-name="Path 145" d="M411.458,513.457c-20.95-5.343-35.1-72.492-80.819-61.141-14.631,3.63-54.558-29.524-50.354-39.033,10.2-23.081-10.683-31.136.155-44.7,5.891-7.382,13.206-15.533,22.7-7.5s6.006,24.743,14.513,26.357,14.3-18.136,19.414-29.3c18.382-40.193,70.226-27.162,87.105-43.209,12.832-12.2,18.063-26.985,15.993-37.839A181.52,181.52,0,0,0,223.66,410.831c16.237,26.77,54.049,49.2,66.237,57.529a9.166,9.166,0,0,1,2.763,12.218c-6.949,11.8-16.5,35.477,4.791,53.045,29.473,24.33,29.453,35.608,17.468,60.775-3.03,6.357-5.3,11.7-7.034,16.222a181.1,181.1,0,0,0,42.282,18.075c11.456-16.87,32-31.348,42.219-35.876,17.617-7.8,52.626-5.513,61.22-42.83C457.687,532.255,432.412,518.8,411.458,513.457Z" transform="translate(-218.378 -272.532)" fill="#8fbd31"/>
      <path id="Path_146" data-name="Path 146" d="M302.057,277.205a180.945,180.945,0,0,1,61.871,27.1c6.233-9.488,8.572-19.371,7.075-27.212a180.857,180.857,0,0,0-75.073-1.172C297.973,276.313,300.016,276.732,302.057,277.205Z" transform="translate(-149.214 -272.53)" fill="#77aa2e"/>
      <path id="Path_147" data-name="Path 147" d="M451.056,482.821a181.62,181.62,0,0,0-85.6-197.7c-11.28,28.62,23.341,40.391,19.67,49.818-1.521,3.9-.566,8.857,1.025,13.255a16.3,16.3,0,0,1-4.932,18.275c-9.314,7.558-21.938,19.87-24.392,32.678-6.024,31.442,4.73,44.616,16.4,54.241,18.067,14.918,31.747,9.691,39.111,20.643,15.948,23.725-57.985,86.54-33.105,116.063A180.838,180.838,0,0,0,451.056,482.821Z" transform="translate(-92.584 -260.495)" fill="#8fbd31"/>
      <path id="Path_148" data-name="Path 148" d="M447.1,482.821a181.62,181.62,0,0,0-85.6-197.7c-11.28,28.62,23.341,40.391,19.67,49.818-1.521,3.9-.566,8.857,1.025,13.255a16.3,16.3,0,0,1-4.932,18.275c-2.609,2.116-5.476,4.617-8.308,7.388a180.469,180.469,0,0,1,12.318,87.184c12.151,5.691,21.476,4.615,27.1,12.991,15.948,23.719-57.985,86.54-33.105,116.063A180.827,180.827,0,0,0,447.1,482.821Z" transform="translate(-88.63 -260.495)" fill="#77aa2e"/>
    </g>
    <g id="Group_619" data-name="Group 619" transform="translate(141.684 273.496)">
      <path id="Path_149" data-name="Path 149" d="M22.67,235.934q-1.089,3.109-2.264,6.484C5.988,283.94-16.071,353.6,18.149,385.388c25.891,24.054,77.95,20.8,112.725,1.409,3.988-2.225,24.21-13.842,40.863-39.454,27.987-43.047,9.327-69.394,31-135.269,9.568-29.085,17.7-53.787,40.863-74.68,25.778-23.249,42.786-17.079,73.271-42.272,22.355-18.476,52.689-54.425,43.681-74.68-9.533-21.429-48.268-23.7-86.224-17.313-2.351.4,5.565-1-6.238,1.213" transform="translate(171.389 0) rotate(11)" fill="none" stroke="#1a1818" stroke-miterlimit="10" stroke-width="1" stroke-dasharray="8"/>
      <g id="Group_605" data-name="Group 605" transform="translate(323.992 170.72) rotate(9)">
        <path id="Path_150" data-name="Path 150" d="M62.625.613a1.883,1.883,0,0,0-2.114-.47L1.1,26.152A1.883,1.883,0,0,0,0,27.816,1.833,1.833,0,0,0,1.038,29.5l14.169,6.987L18.749,57.68a1.847,1.847,0,0,0,1.566,1.585,1.9,1.9,0,0,0,1.585-.548L33.094,47.523,49.083,58.933a1.83,1.83,0,0,0,1.761.215A1.861,1.861,0,0,0,51.96,57.8l11.1-55.579A1.8,1.8,0,0,0,62.625.613ZM16.674,33.08,6.224,27.953,47.5,9.89Zm5.793,5.5-1.722,8.591L18.886,36.055,41.568,18.97,22.957,37.64A1.822,1.822,0,0,0,22.467,38.58Zm1.115,13.229L25.52,42.1l4.54,3.229Zm25.324,2.446L27.125,38.7,58.242,7.482Z" fill="#fff"/>
        <path id="Path_151" data-name="Path 151" d="M6.478,3.229,0,9.707,1.937,0Z" transform="translate(23.583 42.103)" fill="#2e3774"/>
        <path id="Path_152" data-name="Path 152" d="M22.682,0,4.071,18.67a1.822,1.822,0,0,0-.489.939L1.859,28.2,0,17.085Z" transform="translate(18.886 18.97)" fill="#2e3774"/>
        <path id="Path_153" data-name="Path 153" d="M41.274,0,10.451,23.191,0,18.063Z" transform="translate(6.224 9.89)" fill="#24378d"/>
        <path id="Path_154" data-name="Path 154" d="M31.117,0,21.782,46.773,0,31.214Z" transform="translate(27.125 7.483)" fill="#2e3774"/>
      </g>
      <g id="Group_606" data-name="Group 606" transform="translate(478.567 11.354) rotate(1)">
        <path id="Path_155" data-name="Path 155" d="M8.4.131A9.822,9.822,0,0,1,10,0a10,10,0,1,1,0,20,10.263,10.263,0,0,1-1.6-.127A10,10,0,0,1,8.4.131Z" transform="translate(78.983 52.286)" fill="#f5be9e"/>
        <path id="Path_156" data-name="Path 156" d="M8.4,0A37.159,37.159,0,0,1,9.724,9.869,37.183,37.183,0,0,1,8.4,19.741,10,10,0,0,1,8.4,0Z" transform="translate(78.983 52.417)" fill="#e5a486"/>
        <path id="Path_157" data-name="Path 157" d="M3.574,0A3.574,3.574,0,1,1,0,3.574,3.572,3.572,0,0,1,3.574,0Z" transform="translate(85.408 58.713)" fill="#e5a486"/>
        <path id="Path_158" data-name="Path 158" d="M11.6.131A9.8,9.8,0,0,0,10,0a10,10,0,1,0,0,20,10.245,10.245,0,0,0,1.6-.127A10,10,0,0,0,11.6.131Z" transform="translate(0 52.286)" fill="#f5be9e"/>
        <path id="Path_159" data-name="Path 159" d="M1.327,0a37.375,37.375,0,0,0,0,19.741,10,10,0,0,0,8.4-9.871A10,10,0,0,0,1.327,0Z" transform="translate(10.274 52.417)" fill="#e5a486"/>
        <path id="Path_160" data-name="Path 160" d="M31.406.45A37.189,37.189,0,0,1,37.2,0h0A37.182,37.182,0,0,1,74.4,37.2V51.37a37.2,37.2,0,0,1-37.2,37.2,36.393,36.393,0,0,1-5.789-.45l-.18-.029A37.2,37.2,0,0,1,0,51.368V37.2A37.208,37.208,0,0,1,31.406.45Z" transform="translate(12.29 5.605)" fill="#e5a486"/>
        <path id="Path_161" data-name="Path 161" d="M3.574,0A3.574,3.574,0,1,1,0,3.574,3.573,3.573,0,0,1,3.574,0Z" transform="translate(6.427 58.713)" fill="#e5a486"/>
        <path id="Path_162" data-name="Path 162" d="M31.4,0a37.208,37.208,0,0,1,31.41,36.753V50.918a37.206,37.206,0,0,1-31.4,36.749l-.182-.029A37.2,37.2,0,0,1,0,50.918V36.753A37.207,37.207,0,0,1,31.4,0Z" transform="translate(12.292 6.055)" fill="#f5be9e"/>
        <path id="Path_163" data-name="Path 163" d="M4.219,0A4.219,4.219,0,1,1,0,4.219,4.22,4.22,0,0,1,4.219,0Z" transform="translate(57.413 50.587)" fill="#2d3248"/>
        <path id="Path_164" data-name="Path 164" d="M4.219,0A4.219,4.219,0,1,1,0,4.219,4.22,4.22,0,0,1,4.219,0Z" transform="translate(33.128 50.587)" fill="#2d3248"/>
        <path id="Path_165" data-name="Path 165" d="M1.808,0A1.808,1.808,0,1,1,0,1.808,1.808,1.808,0,0,1,1.808,0Z" transform="translate(58.274 52.255)" fill="#fff"/>
        <path id="Path_166" data-name="Path 166" d="M1.808,0A1.808,1.808,0,1,1,0,1.808,1.808,1.808,0,0,1,1.808,0Z" transform="translate(33.782 52.255)" fill="#fff"/>
        <path id="Path_167" data-name="Path 167" d="M0,1.82A1.819,1.819,0,0,1,1.82,0h8.441a1.82,1.82,0,1,1,0,3.64H1.82A1.822,1.822,0,0,1,0,1.82Z" transform="translate(43.45 60.137)" fill="#e5a486"/>
        <path id="Path_168" data-name="Path 168" d="M.858,3.105a1.655,1.655,0,0,1,1.6-2.9,15.439,15.439,0,0,0,14.95,0A1.655,1.655,0,1,1,19,3.105,18.791,18.791,0,0,1,9.929,5.448,18.8,18.8,0,0,1,.858,3.105Z" transform="translate(39.563 69.847)" fill="#e5a486"/>
        <path id="Path_169" data-name="Path 169" d="M28.764.027c.4-.02.789-.027,1.182-.027H44.454A29.949,29.949,0,0,1,74.4,29.95V44.462H67.478V21.846L56.9,23.811,6.924,33.1V44.462H0V29.952A29.941,29.941,0,0,1,28.764.027Z" transform="translate(12.29)" fill="#1b243f"/>
        <path id="Path_170" data-name="Path 170" d="M28.764,0A29.952,29.952,0,0,1,56.9,23.784L6.924,33.07V44.434H0V29.925A29.941,29.941,0,0,1,28.764,0Z" transform="translate(12.29 0.027)" fill="#2d3248"/>
      </g>
      <g id="Group_607" data-name="Group 607" transform="translate(59.149 287.182) rotate(-1)">
        <path id="Path_171" data-name="Path 171" d="M8.069.123A9.607,9.607,0,1,1,9.607,19.214,9.607,9.607,0,0,1,8.069.123Z" transform="translate(75.882 50.235)" fill="#f5be9e"/>
        <path id="Path_172" data-name="Path 172" d="M8.069,0A35.767,35.767,0,0,1,9.343,9.484a35.768,35.768,0,0,1-1.274,9.484A9.608,9.608,0,0,1,8.069,0Z" transform="translate(75.882 50.358)" fill="#e5a486"/>
        <path id="Path_173" data-name="Path 173" d="M3.435,0A3.433,3.433,0,1,1,0,3.433,3.432,3.432,0,0,1,3.435,0Z" transform="translate(82.054 56.409)" fill="#e5a486"/>
        <path id="Path_174" data-name="Path 174" d="M11.143.123A9.607,9.607,0,1,0,9.607,19.214,9.607,9.607,0,0,0,11.143.123Z" transform="translate(0 50.235)" fill="#f5be9e"/>
        <path id="Path_175" data-name="Path 175" d="M1.274,0a35.935,35.935,0,0,0,0,18.967A9.61,9.61,0,0,0,9.343,9.484,9.61,9.61,0,0,0,1.274,0Z" transform="translate(9.869 50.358)" fill="#e5a486"/>
        <path id="Path_176" data-name="Path 176" d="M30.173.433A35.713,35.713,0,0,1,35.739,0h0A35.716,35.716,0,0,1,71.478,35.741V49.352A35.738,35.738,0,0,1,35.741,85.092a35.175,35.175,0,0,1-5.562-.433l-.174-.029A35.74,35.74,0,0,1,0,49.352V35.741A35.746,35.746,0,0,1,30.173.433Z" transform="translate(11.807 5.386)" fill="#e5a486"/>
        <path id="Path_177" data-name="Path 177" d="M3.435,0A3.433,3.433,0,1,1,0,3.433,3.433,3.433,0,0,1,3.435,0Z" transform="translate(6.172 56.409)" fill="#e5a486"/>
        <path id="Path_178" data-name="Path 178" d="M30.173,0A35.746,35.746,0,0,1,60.351,35.309V48.92A35.747,35.747,0,0,1,30.181,84.226l-.176-.029A35.742,35.742,0,0,1,0,48.92V35.309A35.746,35.746,0,0,1,30.173,0Z" transform="translate(11.807 5.818)" fill="#f5be9e"/>
        <path id="Path_179" data-name="Path 179" d="M4.053,0A4.054,4.054,0,1,1,0,4.053,4.053,4.053,0,0,1,4.053,0Z" transform="translate(55.159 48.603)" fill="#2d3248"/>
        <path id="Path_180" data-name="Path 180" d="M4.055,0A4.054,4.054,0,1,1,0,4.053,4.053,4.053,0,0,1,4.055,0Z" transform="translate(31.825 48.603)" fill="#2d3248"/>
        <path id="Path_181" data-name="Path 181" d="M1.738,0A1.737,1.737,0,1,1,0,1.738,1.738,1.738,0,0,1,1.738,0Z" transform="translate(55.985 50.204)" fill="#fff"/>
        <path id="Path_182" data-name="Path 182" d="M1.736,0A1.737,1.737,0,1,1,0,1.738,1.736,1.736,0,0,1,1.736,0Z" transform="translate(32.455 50.204)" fill="#fff"/>
        <path id="Path_183" data-name="Path 183" d="M0,1.748A1.747,1.747,0,0,1,1.748,0h8.11a1.749,1.749,0,1,1,0,3.5H1.748A1.75,1.75,0,0,1,0,1.748Z" transform="translate(41.743 57.777)" fill="#e5a486"/>
        <path id="Path_184" data-name="Path 184" d="M.825,2.984A1.59,1.59,0,1,1,2.357.2,14.826,14.826,0,0,0,16.72.2a1.59,1.59,0,0,1,1.532,2.787A18.055,18.055,0,0,1,9.537,5.234,18.047,18.047,0,0,1,.825,2.984Z" transform="translate(38.008 67.105)" fill="#e5a486"/>
        <path id="Path_185" data-name="Path 185" d="M27.635.027c.38-.02.757-.027,1.137-.027H42.708A28.772,28.772,0,0,1,71.48,28.776V42.718H64.828V20.989L54.668,22.878,6.652,31.8V42.718H0V28.776A28.766,28.766,0,0,1,27.635.027Z" transform="translate(11.807)" fill="#907719"/>
        <path id="Path_186" data-name="Path 186" d="M27.635,0A28.773,28.773,0,0,1,54.668,22.85L6.652,31.772V42.691H0V28.749A28.766,28.766,0,0,1,27.635,0Z" transform="translate(11.807 0.027)" fill="#ae8f1f"/>
      </g>
      <g id="Group_609" data-name="Group 609" transform="translate(1.582 352.396) rotate(2)">
        <path id="Path_187" data-name="Path 187" d="M45.262,20.788c-.01-.149-.025-.294-.041-.436-.014-.19-.039-.38-.065-.568A22.481,22.481,0,0,0,42.6,11.862c-.084-.159-.174-.317-.268-.478s-.18-.313-.274-.468-.194-.313-.294-.468c-.139-.219-.284-.432-.432-.648-.1-.139-.19-.274-.284-.4A22.251,22.251,0,0,0,38.7,6.64c-.129-.129-.258-.254-.387-.378a22.7,22.7,0,0,0-3.037-2.435c-.129-.09-.258-.174-.387-.254a18.318,18.318,0,0,0-1.66-.965c-.119-.065-.239-.129-.362-.19-.145-.074-.294-.149-.444-.219s-.3-.145-.452-.209c-.454-.209-.916-.4-1.39-.571-.155-.061-.313-.115-.472-.17A22.389,22.389,0,0,0,27.24.462L26.8.374c-.209-.035-.413-.07-.628-.106s-.407-.059-.611-.084a.645.645,0,0,0-.106-.01A1.845,1.845,0,0,0,25.2.145C24.95.114,24.7.09,24.437.069L24,.039c-.143-.01-.294-.016-.442-.019S23.263.01,23.114,0s-.3,0-.444,0-.3,0-.442,0-.3.006-.444.016-.3.01-.442.019L20.9.069c-.258.021-.513.045-.761.076a1.88,1.88,0,0,0-.254.029.621.621,0,0,0-.1.01c-.205.025-.409.055-.613.084-.348.055-.687.116-1.031.184S17.443.6,17.1.691c-.164.041-.325.086-.489.129-.348.1-.687.2-1.02.309-.164.051-.329.11-.487.164s-.329.119-.489.18c-.352.133-.7.278-1.045.427-.129.055-.258.115-.384.174q-.977.449-1.9.986c-.233.135-.468.274-.7.423a2.455,2.455,0,0,0-.223.145c-.245.155-.489.319-.728.487s-.478.344-.712.524-.5.382-.736.587c-.119.1-.239.2-.358.3A.084.084,0,0,0,7.8,5.56c-.178.149-.358.309-.526.468l-.016.016c-.213.194-.417.393-.622.6-.065.061-.123.125-.184.19-.2.194-.384.393-.567.6-.243.268-.483.542-.712.822s-.452.568-.671.855c-.329.438-.638.887-.932,1.344-.194.309-.384.622-.568.936-.123.215-.243.429-.358.648s-.213.413-.319.622-.207.432-.307.652A22.2,22.2,0,0,0,.2,19.639,22.647,22.647,0,0,0,.2,25.7,22.4,22.4,0,0,0,2.329,32.68c.106.209.209.415.319.622s.235.435.358.648c.184.313.374.628.568.935.145.229.3.458.454.677s.319.448.478.667c.219.29.442.573.671.857s.47.552.712.82c.184.205.374.4.567.6.061.065.119.129.184.188.205.206.409.4.622.6l.016.014c.168.16.348.319.526.468a.117.117,0,0,0,.031.031c.119.1.239.2.358.3.438.368.89.716,1.358,1.051l.339.229c.07.049.141.1.209.143.209.141.419.28.632.4.174.115.354.219.532.325a22.7,22.7,0,0,0,3.35,1.6c.16.065.325.123.489.178.11.041.219.08.333.115.164.055.329.11.493.159s.354.11.538.16.348.1.526.143c.206.055.409.106.618.151.278.065.558.123.841.174.239.045.478.084.716.123.2.031.407.061.613.086a.916.916,0,0,0,.1.01c.084.014.17.023.254.029.249.029.5.055.761.074.145.016.29.025.438.029s.294.016.442.022.294.014.444.014.294.006.442.006.3,0,.444-.006.3-.01.442-.014.3-.012.442-.022.294-.014.438-.029c.258-.02.513-.045.761-.074.086-.006.17-.016.254-.029a.952.952,0,0,0,.106-.01c.2-.025.407-.055.611-.086s.419-.069.628-.1l.442-.09a22.1,22.1,0,0,0,2.869-.787c.159-.055.317-.11.472-.168.474-.174.935-.364,1.39-.573.149-.065.3-.133.452-.209s.3-.143.444-.219c.123-.059.243-.123.362-.188a18.351,18.351,0,0,0,1.66-.967c.129-.078.258-.164.387-.252a22.712,22.712,0,0,0,3.037-2.434c.129-.125.258-.251.387-.38a22.32,22.32,0,0,0,2.767-3.354c.106-.149.205-.3.3-.454s.2-.307.294-.468.184-.307.274-.468.184-.319.268-.478c.264-.483.509-.977.738-1.48.074-.162.149-.333.219-.5.213-.509.413-1.031.591-1.56.061-.174.115-.348.17-.522s.11-.358.158-.536c.041-.135.076-.274.115-.409.059-.225.114-.448.164-.677.045-.184.084-.368.119-.552.114-.554.209-1.112.278-1.679.025-.188.051-.378.065-.571.016-.145.031-.294.041-.444.055-.617.078-1.239.078-1.871S45.317,21.406,45.262,20.788ZM20.2,20.848H25.24a6.3,6.3,0,0,1,0,12.6h-.7v2.847a1.864,1.864,0,0,1-3.728,0V33.444H18.523a4.668,4.668,0,0,1-4.664-4.666,1.864,1.864,0,1,1,3.728,0,.944.944,0,0,0,.935.932H25.24a2.564,2.564,0,0,0,0-5.127H20.2c-8.173,0-8.765-12.6.609-12.6V9a1.864,1.864,0,1,1,3.728,0v2.987h2.38c4.754,0,6.188,6.53,2.8,6.53a1.866,1.866,0,0,1-1.867-1.865.94.94,0,0,0-.932-.932H20.2a2.564,2.564,0,1,0,0,5.128Z" fill="#471b5b"/>
        <g id="Group_608" data-name="Group 608">
          <path id="Path_188" data-name="Path 188" d="M45.258,20.788c-.01-.149-.025-.294-.041-.436-.014-.19-.039-.38-.065-.568A22.481,22.481,0,0,0,42.6,11.862c-.084-.159-.174-.317-.268-.478s-.18-.313-.274-.468-.194-.313-.294-.468c-.139-.219-.284-.432-.432-.648-.1-.139-.19-.274-.284-.4A22.251,22.251,0,0,0,38.7,6.64c-.129-.129-.258-.254-.387-.378a22.7,22.7,0,0,0-3.037-2.435c-.129-.09-.258-.174-.387-.254a18.315,18.315,0,0,0-1.66-.965c-.119-.065-.239-.129-.362-.19-.145-.074-.294-.149-.444-.219s-.3-.145-.452-.209c-.454-.209-.916-.4-1.389-.571-.155-.061-.313-.115-.472-.17A22.389,22.389,0,0,0,27.236.462L26.794.374c-.209-.035-.413-.07-.628-.106s-.407-.059-.611-.084a.644.644,0,0,0-.106-.01,1.845,1.845,0,0,0-.254-.029c-.249-.031-.5-.055-.761-.076L24,.039C23.852.029,23.7.023,23.553.02S23.259.01,23.111,0s-.3,0-.444,0-.3,0-.442,0-.3.006-.444.016-.3.01-.442.019L20.9.069c-.258.021-.513.045-.761.076a1.879,1.879,0,0,0-.254.029.621.621,0,0,0-.1.01c-.205.025-.409.055-.613.084-.344.055-.687.116-1.031.184S17.439.6,17.1.691c-.164.041-.325.086-.489.129-.348.1-.687.2-1.02.309-.164.051-.329.11-.487.164s-.329.119-.489.18c-.352.133-.7.278-1.045.427-.129.055-.258.115-.384.174q-.978.449-1.9.986c-.233.135-.468.274-.7.423a2.454,2.454,0,0,0-.223.145c-.245.155-.489.319-.728.487s-.478.344-.712.524-.5.382-.736.587c-.119.1-.239.2-.358.3A.084.084,0,0,0,7.8,5.56c-.178.149-.358.309-.526.468l-.016.016c-.213.194-.417.393-.622.6-.065.061-.123.125-.184.19-.2.194-.384.393-.568.6-.243.268-.483.542-.712.822S4.72,8.816,4.5,9.1c-.329.438-.638.887-.932,1.344-.194.309-.384.622-.568.936-.123.215-.243.429-.358.648s-.213.413-.319.622-.207.432-.307.652A22.591,22.591,0,0,0,.2,19.639,23.088,23.088,0,0,0,.2,25.7,22.716,22.716,0,0,0,2.325,32.68c.106.209.209.415.319.622s.235.435.358.648c.184.313.374.628.568.935.145.229.3.458.454.677s.319.448.478.667c.219.29.442.573.671.857s.47.552.712.82c.184.205.374.4.568.6.061.065.119.129.184.188.206.206.409.4.622.6l.016.014c.168.16.348.319.526.468a.116.116,0,0,0,.031.031c.119.1.239.2.358.3.438.368.89.716,1.358,1.051l.339.229c.07.049.141.1.209.143.209.141.419.28.632.4.174.115.354.219.532.325a22.7,22.7,0,0,0,3.35,1.6c.16.065.325.123.489.178.11.041.219.08.333.115.164.055.329.11.493.159s.354.11.538.16.348.1.526.143c.206.055.409.106.618.151.278.065.558.123.842.174.239.045.478.09.716.123.2.031.407.061.613.086a.917.917,0,0,0,.1.01c.084.014.17.023.254.029.249.029.5.055.761.074.145.016.29.025.438.029s.294.016.442.022.294.014.444.014.294.006.442.006.3,0,.444-.006.3-.01.442-.014.3-.012.442-.022.294-.014.438-.029c.258-.02.513-.045.761-.074.086-.006.17-.016.254-.029a.95.95,0,0,0,.106-.01c.2-.025.407-.055.611-.086s.419-.069.628-.1l.442-.09a22.1,22.1,0,0,0,2.869-.787c.159-.055.317-.11.472-.168.474-.174.935-.364,1.389-.573.149-.065.3-.133.452-.209s.3-.143.444-.219c.123-.059.243-.123.362-.188a18.348,18.348,0,0,0,1.66-.967c.129-.078.258-.164.387-.252a22.716,22.716,0,0,0,3.037-2.434c.129-.125.258-.251.387-.38a22.321,22.321,0,0,0,2.767-3.354c.106-.149.205-.3.3-.454s.2-.307.294-.468.184-.307.274-.468.184-.319.268-.478c.264-.483.509-.977.738-1.48.074-.162.149-.333.219-.5.213-.509.413-1.031.591-1.56.061-.174.115-.348.17-.522s.11-.358.158-.536c.041-.135.076-.274.115-.409.059-.225.114-.448.164-.677.045-.184.084-.368.119-.552.113-.554.209-1.112.278-1.679.025-.188.051-.378.065-.571.016-.145.031-.294.041-.444.055-.617.078-1.239.078-1.871S45.313,21.406,45.258,20.788ZM20.2,20.848h5.039a6.3,6.3,0,0,1,0,12.6h-.7v2.847a1.864,1.864,0,0,1-3.728,0V33.444H18.519a4.668,4.668,0,0,1-4.664-4.666,1.864,1.864,0,1,1,3.728,0,.944.944,0,0,0,.935.932h6.717a2.564,2.564,0,0,0,0-5.127H20.2c-8.173,0-8.766-12.6.609-12.6V9a1.864,1.864,0,1,1,3.728,0v2.987h2.38c4.754,0,6.188,6.53,2.8,6.53a1.866,1.866,0,0,1-1.867-1.865.94.94,0,0,0-.932-.932H20.2a2.564,2.564,0,1,0,0,5.128Z" transform="translate(0.004)" fill="#ffc71f"/>
          <path id="Path_189" data-name="Path 189" d="M26.169,22.67c0,.632-.024,1.254-.078,1.871-.01.151-.025.3-.041.444-.014.194-.039.384-.065.571-.068.568-.164,1.125-.278,1.679-.035.184-.074.368-.119.552-.051.229-.106.452-.164.677-.039.135-.074.274-.115.409-.049.178-.1.358-.159.536s-.11.348-.17.522c-.178.528-.378,1.051-.591,1.56-.07.168-.145.339-.219.5-.229.5-.474,1-.738,1.48-.084.159-.174.319-.268.478s-.18.313-.274.468-.194.315-.294.468-.194.305-.3.454a22.321,22.321,0,0,1-2.767,3.354c-.129.129-.258.254-.387.38A22.713,22.713,0,0,1,16.1,41.508c-.129.088-.258.174-.387.252a18.347,18.347,0,0,1-1.66.967c-.119.065-.239.129-.362.188-.145.076-.294.151-.444.219s-.3.145-.452.209c-.454.209-.916.4-1.39.573-.155.059-.313.113-.472.168a22.1,22.1,0,0,1-2.869.787l-.442.09c-.209.035-.413.07-.628.1s-.407.061-.611.086a.952.952,0,0,1-.106.01c-.084.014-.168.023-.254.029-.249.029-.5.055-.761.074-.145.016-.288.025-.438.029s-.294.016-.442.022-.294.014-.442.014-.3.006-.444.006c-.3,0-.593-.006-.887-.019s-.591-.026-.881-.051c-.258-.02-.513-.045-.761-.074-.084-.006-.17-.016-.254-.029-.239-.026-.478-.061-.716-.1a22.792,22.792,0,0,0,3.5-.83A22.67,22.67,0,0,0,19.171,22.67,22.679,22.679,0,0,0,3.5,1.1,22.556,22.556,0,0,0,0,.268C.239.233.478.2.716.174A1.88,1.88,0,0,1,.971.145c.249-.031.5-.055.761-.076.29-.023.583-.039.881-.049S3.2,0,3.5,0c.149,0,.3,0,.444,0s.3.006.442.016.3.01.442.019l.438.029c.258.021.513.045.761.076a1.845,1.845,0,0,1,.254.029.645.645,0,0,1,.106.01c.2.025.407.055.611.084s.419.07.628.106l.442.088a22.39,22.39,0,0,1,2.869.787c.159.055.317.109.472.17.474.174.935.362,1.39.571.149.065.3.135.452.209s.3.145.444.219c.123.061.243.125.362.19a18.314,18.314,0,0,1,1.66.965c.129.08.258.164.387.254a22.7,22.7,0,0,1,3.037,2.435c.129.123.258.248.387.378A22.255,22.255,0,0,1,21.88,9.4c.094.129.188.264.284.4.149.215.294.429.432.648.1.155.2.309.294.468s.184.309.274.468.184.319.268.478a22.48,22.48,0,0,1,2.554,7.922c.025.188.051.378.065.568.016.143.031.288.041.436C26.146,21.406,26.169,22.038,26.169,22.67Z" transform="translate(19.171)" fill="#f5b400"/>
          <path id="Path_190" data-name="Path 190" d="M22.67,44.237a22.847,22.847,0,0,0,3.5.83c-.239.035-.478.07-.716.1-.084.014-.168.023-.254.029-.249.029-.5.055-.761.074-.288.025-.581.039-.881.051s-.587.019-.887.019c-.149,0-.3,0-.442-.006s-.3-.01-.444-.014-.3-.012-.442-.022-.294-.014-.438-.029c-.258-.02-.513-.045-.761-.074-.084-.006-.17-.016-.254-.029a.916.916,0,0,1-.1-.01c-.205-.025-.409-.055-.613-.086-.239-.039-.478-.078-.716-.123-.284-.051-.564-.11-.841-.174-.209-.045-.413-.1-.618-.151-.178-.043-.352-.094-.526-.143s-.364-.106-.538-.16-.329-.1-.493-.159c-.114-.035-.223-.074-.333-.115-.164-.055-.329-.113-.489-.178a22.7,22.7,0,0,1-3.35-1.6c-.178-.106-.358-.209-.532-.325-.213-.129-.423-.262-.632-.4-.068-.045-.139-.094-.209-.143l-.339-.229c-.468-.335-.92-.683-1.358-1.051-.119-.1-.239-.2-.358-.3a.117.117,0,0,1-.031-.031c-.178-.149-.358-.307-.526-.468l-.016-.014c-.213-.2-.417-.393-.622-.6-.065-.059-.123-.123-.184-.188-.194-.2-.384-.393-.567-.6-.243-.268-.483-.542-.712-.82s-.452-.568-.671-.857c-.159-.219-.319-.438-.478-.667s-.309-.448-.454-.677c-.194-.307-.384-.622-.568-.935-.123-.213-.243-.429-.358-.648s-.213-.413-.319-.622A22.4,22.4,0,0,1,.2,25.7a22.647,22.647,0,0,1,0-6.059,22.2,22.2,0,0,1,1.818-6.333c.1-.219.2-.433.307-.652s.209-.413.319-.622.235-.432.358-.648c.184-.313.374-.626.568-.936.294-.458.6-.906.932-1.344.219-.288.442-.571.671-.855s.47-.554.712-.822c.184-.2.368-.4.567-.6.061-.065.119-.129.184-.19.205-.2.409-.4.622-.6l.016-.016c.168-.159.348-.319.526-.468a.084.084,0,0,1,.031-.029c.119-.106.239-.2.358-.3.239-.205.487-.4.736-.587s.474-.354.712-.524.483-.333.728-.487a2.455,2.455,0,0,1,.223-.145c.229-.149.464-.288.7-.423q.919-.537,1.9-.986c.125-.059.254-.119.384-.174.344-.149.693-.294,1.045-.427.16-.061.325-.119.489-.18s.323-.114.487-.164c.333-.114.671-.213,1.02-.309.164-.043.325-.088.489-.129C17.443.6,17.791.523,18.14.452s.683-.129,1.031-.184c.2-.029.407-.059.613-.084a.621.621,0,0,1,.1-.01,1.88,1.88,0,0,1,.254-.029c.249-.031.5-.055.761-.076l.438-.029c.145-.01.294-.016.442-.019s.294-.01.444-.016.294,0,.442,0c.3,0,.593,0,.887.02s.593.025.881.049c.258.021.513.045.761.076a1.845,1.845,0,0,1,.254.029c.239.024.477.059.716.094a22.675,22.675,0,0,0-3.5,43.968Z" fill="#ffda67"/>
        </g>
      </g>
      <g id="Group_611" data-name="Group 611" transform="translate(56.28 384.827) rotate(2)">
        <path id="Path_191" data-name="Path 191" d="M29.618,13.6c-.008-.1-.018-.192-.027-.286-.01-.123-.025-.249-.041-.372a14.685,14.685,0,0,0-1.671-5.182c-.055-.1-.114-.209-.176-.313s-.117-.206-.18-.305-.127-.206-.192-.307c-.09-.143-.186-.284-.284-.423-.061-.092-.123-.18-.186-.264a14.386,14.386,0,0,0-1.536-1.8c-.084-.086-.17-.166-.254-.249a15.1,15.1,0,0,0-1.986-1.593c-.086-.059-.17-.114-.254-.166a12.4,12.4,0,0,0-1.086-.632c-.076-.041-.155-.084-.237-.123s-.192-.1-.29-.143-.2-.094-.3-.137c-.3-.137-.6-.26-.908-.374-.1-.039-.206-.076-.309-.112A14.683,14.683,0,0,0,17.825.3l-.29-.059L17.124.176c-.133-.02-.266-.039-.4-.055a.381.381,0,0,0-.068-.008,1.589,1.589,0,0,0-.164-.02c-.164-.02-.331-.035-.5-.049L15.7.025c-.094-.006-.192-.01-.29-.012s-.192-.008-.29-.01-.192,0-.29,0-.2,0-.29,0-.2,0-.29.01-.2.006-.292.012l-.286.02c-.17.014-.335.029-.5.049-.055,0-.11.01-.166.02a.426.426,0,0,0-.068.008c-.133.016-.266.035-.4.055-.229.035-.45.074-.675.121s-.456.1-.681.156c-.108.025-.211.055-.319.084-.227.061-.45.127-.667.2-.108.033-.215.072-.319.108L9.564.965c-.233.088-.46.182-.685.28-.084.035-.168.074-.251.114A13.749,13.749,0,0,0,7.388,2c-.153.088-.307.178-.456.276a1.339,1.339,0,0,0-.147.1c-.16.1-.319.207-.476.319S6,2.92,5.844,3.037s-.327.25-.483.384c-.078.065-.157.131-.233.2l-.02.02c-.117.1-.235.2-.346.307l-.01.01c-.139.127-.274.256-.407.391-.043.039-.082.08-.121.123-.129.127-.25.256-.37.391-.16.176-.317.354-.466.536s-.3.372-.44.562c-.215.286-.417.579-.609.879-.127.2-.25.407-.372.613-.082.141-.16.28-.235.423s-.139.272-.207.407-.137.284-.2.429A14.538,14.538,0,0,0,.133,12.852a14.843,14.843,0,0,0,1.391,8.535c.068.137.135.27.207.407s.153.284.235.423c.121.205.245.411.372.613.094.151.2.3.3.444s.209.294.313.436c.143.188.29.374.44.56s.305.362.466.538c.119.133.245.264.37.391.039.041.078.084.121.123.133.133.268.264.407.391l.01.01c.112.1.229.207.346.305l.02.019c.076.069.155.133.233.2.288.241.583.468.89.687.07.049.147.1.221.149.045.033.092.067.137.1.137.09.274.182.413.262.115.076.233.145.348.213A14.955,14.955,0,0,0,9.564,28.7c.1.041.211.08.319.117.07.025.143.051.217.074.108.035.215.07.323.1s.231.072.352.1.227.067.344.1c.135.035.268.068.405.1.182.041.364.08.55.114.157.029.313.055.47.08.133.02.266.039.4.057.023,0,.047.006.068.006a1.673,1.673,0,0,0,.166.019c.164.02.329.035.5.049.094.01.19.016.286.019s.194.01.292.014.192.01.29.01.192,0,.29,0,.2,0,.29,0,.2-.008.29-.01.2-.008.29-.014.194-.01.288-.019c.168-.014.335-.029.5-.049a1.572,1.572,0,0,0,.164-.019c.023,0,.047,0,.068-.006.135-.018.268-.037.4-.057s.274-.045.411-.068l.29-.059a14.06,14.06,0,0,0,1.877-.515c.1-.035.207-.07.309-.11q.464-.17.908-.376c.1-.041.2-.086.3-.135s.2-.1.29-.145.16-.08.237-.123a11.462,11.462,0,0,0,1.086-.632c.084-.051.168-.108.254-.166a14.788,14.788,0,0,0,1.986-1.593c.084-.08.17-.162.254-.247a14.65,14.65,0,0,0,1.81-2.2c.069-.1.135-.2.2-.3s.131-.2.192-.305.121-.2.18-.307.121-.207.176-.311q.258-.476.481-.969c.049-.108.1-.217.143-.329.141-.333.272-.673.389-1.02.037-.113.074-.227.11-.342s.072-.233.1-.35c.027-.088.049-.18.076-.268.039-.147.074-.294.108-.442.029-.121.055-.241.078-.362.074-.362.135-.726.182-1.1.016-.123.031-.248.041-.374.01-.1.02-.194.027-.292.035-.4.051-.81.051-1.223S29.653,14.008,29.618,13.6Zm-16.4.039h3.3a4.121,4.121,0,1,1,0,8.243h-.46v1.863a1.22,1.22,0,0,1-2.44,0V21.885h-1.5a3.054,3.054,0,0,1-3.051-3.053,1.219,1.219,0,1,1,2.438,0,.618.618,0,0,0,.613.609h4.4a1.677,1.677,0,0,0,0-3.354h-3.3c-5.349,0-5.736-8.243.4-8.243V5.891a1.22,1.22,0,1,1,2.44,0V7.844h1.558c3.11,0,4.049,4.274,1.83,4.274A1.221,1.221,0,0,1,18.222,10.9a.613.613,0,0,0-.609-.609h-4.4a1.677,1.677,0,1,0,0,3.354Z" fill="#471b5b"/>
        <g id="Group_610" data-name="Group 610">
          <path id="Path_192" data-name="Path 192" d="M29.616,13.6c-.008-.1-.018-.192-.027-.286-.01-.123-.025-.249-.041-.372a14.685,14.685,0,0,0-1.671-5.182c-.055-.1-.114-.209-.176-.313s-.117-.206-.18-.305-.127-.206-.192-.307c-.09-.143-.186-.284-.284-.423-.061-.092-.123-.18-.186-.264a14.383,14.383,0,0,0-1.536-1.8c-.084-.086-.17-.166-.254-.249a15.1,15.1,0,0,0-1.986-1.593c-.086-.059-.17-.114-.254-.166a12.4,12.4,0,0,0-1.086-.632c-.076-.041-.155-.084-.237-.123s-.192-.1-.29-.143-.2-.094-.3-.137c-.3-.137-.6-.26-.908-.374C19.907.891,19.8.853,19.7.818A14.683,14.683,0,0,0,17.823.3l-.29-.059L17.122.176c-.133-.02-.266-.039-.4-.055a.381.381,0,0,0-.069-.008,1.587,1.587,0,0,0-.164-.02c-.164-.02-.331-.035-.5-.049L15.7.025c-.094-.006-.192-.01-.29-.012S15.22.006,15.122,0s-.192,0-.29,0-.2,0-.29,0-.2,0-.29.01-.2.006-.292.012l-.286.02c-.17.014-.335.029-.5.049-.055,0-.11.01-.166.02a.426.426,0,0,0-.068.008c-.133.016-.266.035-.4.055-.225.035-.45.074-.675.121s-.456.1-.681.156c-.108.025-.211.055-.319.084-.227.061-.45.127-.667.2-.108.033-.215.072-.319.108L9.562.965c-.233.088-.46.182-.685.28-.084.035-.168.074-.251.114A13.75,13.75,0,0,0,7.386,2c-.153.088-.307.178-.456.276a1.339,1.339,0,0,0-.147.1c-.16.1-.319.207-.476.319s-.313.225-.466.342-.327.25-.483.384c-.078.065-.157.131-.233.2l-.02.02c-.117.1-.235.2-.346.307l-.01.01c-.139.127-.274.256-.407.391-.043.039-.082.08-.121.123-.129.127-.251.256-.37.391-.16.176-.317.354-.466.536s-.3.372-.44.562c-.215.286-.417.579-.609.879-.127.2-.25.407-.372.613-.082.141-.16.28-.235.423s-.139.272-.207.407-.137.284-.2.429A14.794,14.794,0,0,0,.131,12.852a15.054,15.054,0,0,0,0,3.965,14.769,14.769,0,0,0,1.391,4.57c.069.137.135.27.207.407s.153.284.235.423c.121.205.245.411.372.613.094.151.2.3.3.444s.209.294.313.436c.143.188.29.374.44.56s.305.362.466.538c.119.133.245.264.37.391.039.041.078.084.121.123.133.133.268.264.407.391l.01.01c.112.1.229.207.346.305l.02.019c.076.069.155.133.233.2.288.241.583.468.89.687.07.049.147.1.221.149.045.033.092.067.137.1.137.09.274.182.413.262.115.076.233.145.348.213A14.954,14.954,0,0,0,9.562,28.7c.1.041.211.08.319.117.07.025.143.051.217.074.108.035.215.07.323.1s.231.072.352.1.227.067.344.1c.135.035.268.068.405.1.182.041.364.08.55.114.157.029.313.059.47.08.133.02.266.039.4.057.023,0,.047.006.068.006a1.672,1.672,0,0,0,.166.019c.164.02.329.035.5.049.094.01.19.016.286.019s.194.01.292.014.192.01.29.01.192,0,.29,0,.2,0,.29,0,.2-.008.29-.01.2-.008.29-.014.194-.01.288-.019c.168-.014.335-.029.5-.049a1.57,1.57,0,0,0,.164-.019c.024,0,.047,0,.069-.006.135-.018.268-.037.4-.057s.274-.045.411-.068l.29-.059a14.06,14.06,0,0,0,1.877-.515c.1-.035.207-.07.309-.11q.464-.17.908-.376c.1-.041.2-.086.3-.135s.2-.1.29-.145.16-.08.237-.123a11.464,11.464,0,0,0,1.086-.632c.084-.051.168-.108.254-.166a14.788,14.788,0,0,0,1.986-1.593c.084-.08.17-.162.254-.247a14.653,14.653,0,0,0,1.81-2.2c.069-.1.135-.2.2-.3s.131-.2.192-.305.121-.2.18-.307.121-.207.176-.311q.258-.476.481-.969c.049-.108.1-.217.143-.329.141-.333.272-.673.389-1.02.037-.113.074-.227.11-.342s.072-.233.1-.35c.027-.088.049-.18.076-.268.039-.147.074-.294.108-.442.029-.121.055-.241.078-.362.074-.362.135-.726.182-1.1.016-.123.031-.248.041-.374.01-.1.02-.194.027-.292.035-.4.051-.81.051-1.223S29.651,14.008,29.616,13.6Zm-16.4.039h3.3a4.121,4.121,0,1,1,0,8.243h-.46v1.863a1.22,1.22,0,0,1-2.44,0V21.885h-1.5a3.054,3.054,0,0,1-3.051-3.053,1.219,1.219,0,1,1,2.438,0,.618.618,0,0,0,.613.609h4.4a1.677,1.677,0,0,0,0-3.354h-3.3c-5.349,0-5.736-8.243.4-8.243V5.891a1.22,1.22,0,1,1,2.44,0V7.844h1.558c3.11,0,4.049,4.274,1.83,4.274A1.221,1.221,0,0,1,18.22,10.9a.613.613,0,0,0-.609-.609h-4.4a1.677,1.677,0,1,0,0,3.354Z" transform="translate(0.002)" fill="#ffc71f"/>
          <path id="Path_193" data-name="Path 193" d="M17.124,14.836c0,.413-.016.82-.051,1.223-.008.1-.018.2-.027.292-.01.125-.025.25-.041.374-.047.372-.108.736-.182,1.1-.023.121-.049.241-.078.362-.033.149-.068.3-.108.442-.027.088-.049.18-.076.268-.031.117-.068.233-.1.35s-.072.229-.11.342c-.117.346-.249.687-.389,1.02-.045.112-.094.221-.143.329q-.223.493-.481.969-.082.156-.176.311c-.059.106-.117.205-.18.307s-.127.206-.192.305-.127.2-.2.3a14.649,14.649,0,0,1-1.81,2.2c-.084.084-.17.166-.254.247a14.786,14.786,0,0,1-1.986,1.593c-.086.059-.17.115-.254.166A11.463,11.463,0,0,1,9.2,27.96c-.076.043-.155.084-.237.123s-.192.1-.29.145-.2.094-.3.135q-.443.205-.908.376c-.1.039-.206.074-.309.11a14.058,14.058,0,0,1-1.877.515l-.29.059c-.137.023-.27.047-.411.068s-.266.039-.4.057c-.022,0-.045.006-.069.006a1.569,1.569,0,0,1-.164.019c-.164.02-.331.035-.5.049-.094.01-.19.016-.288.019s-.192.01-.29.014-.192.01-.29.01-.192,0-.29,0c-.2,0-.387,0-.579-.012s-.387-.018-.577-.033c-.17-.014-.335-.029-.5-.049a1.672,1.672,0,0,1-.166-.019C.313,29.537.157,29.514,0,29.49a14.6,14.6,0,0,0,2.29-.544,14.831,14.831,0,0,0,10.255-14.11A14.84,14.84,0,0,0,2.29.72,15.078,15.078,0,0,0,0,.176C.157.153.313.131.468.114.524.1.579.1.634.094.8.074.963.059,1.133.045c.19-.016.382-.026.577-.031S2.094,0,2.29,0c.1,0,.2,0,.29,0s.2,0,.29.01.2.006.29.012l.288.02c.168.014.335.029.5.049a1.586,1.586,0,0,1,.164.02.381.381,0,0,1,.069.008c.135.016.268.035.4.055L4.99.245,5.28.3A14.682,14.682,0,0,1,7.157.818c.1.035.207.072.309.112.309.113.613.237.908.374.1.043.2.088.3.137s.2.094.29.143.16.082.237.123a12.4,12.4,0,0,1,1.086.632c.084.053.168.108.254.166A15.1,15.1,0,0,1,12.525,4.1c.084.082.17.162.254.249a14.389,14.389,0,0,1,1.536,1.8c.063.084.125.172.186.264.1.139.194.28.284.423.065.1.131.2.192.307s.121.2.18.305.121.209.176.313A14.685,14.685,0,0,1,17,12.946c.016.123.031.249.041.372.01.094.02.188.027.286C17.108,14.008,17.124,14.421,17.124,14.836Z" transform="translate(12.545)" fill="#f5b400"/>
          <path id="Path_194" data-name="Path 194" d="M14.834,28.946a14.6,14.6,0,0,0,2.29.544c-.157.023-.313.047-.47.063a1.572,1.572,0,0,1-.164.019c-.164.02-.331.035-.5.049-.19.016-.382.025-.577.033s-.384.012-.579.012c-.1,0-.2,0-.29,0s-.2-.008-.29-.01-.2-.008-.292-.014-.192-.01-.286-.019c-.17-.014-.335-.029-.5-.049a1.673,1.673,0,0,1-.166-.019c-.021,0-.045,0-.068-.006-.133-.018-.266-.037-.4-.057-.157-.025-.313-.051-.47-.08-.186-.033-.368-.073-.55-.114-.137-.029-.27-.063-.405-.1-.117-.029-.231-.063-.344-.1s-.239-.068-.352-.1-.215-.068-.323-.1c-.074-.023-.147-.049-.217-.074-.108-.037-.215-.076-.319-.117A14.955,14.955,0,0,1,7.37,27.655c-.115-.069-.233-.137-.348-.213-.139-.084-.276-.172-.413-.262-.045-.029-.092-.063-.137-.1-.074-.049-.151-.1-.221-.149-.307-.219-.6-.446-.89-.687-.078-.067-.157-.131-.233-.2l-.02-.019c-.117-.1-.235-.2-.346-.305l-.01-.01c-.139-.127-.274-.258-.407-.391-.043-.039-.082-.082-.121-.123-.125-.127-.25-.258-.37-.391-.16-.176-.317-.356-.466-.538s-.3-.372-.44-.56c-.1-.143-.209-.288-.313-.436s-.2-.294-.3-.444c-.127-.2-.25-.407-.372-.613q-.123-.208-.235-.423c-.072-.137-.139-.27-.207-.407A14.841,14.841,0,0,1,.133,12.852,14.538,14.538,0,0,1,1.321,8.709c.067-.145.135-.284.2-.429s.135-.27.207-.407.153-.282.235-.423c.121-.206.245-.411.372-.613.192-.3.393-.593.609-.879.143-.19.29-.376.44-.562s.305-.36.466-.536c.119-.135.241-.264.37-.391.039-.043.078-.084.121-.123.133-.135.268-.264.407-.391l.01-.01c.112-.1.229-.209.346-.307l.02-.02c.076-.067.155-.133.233-.2.157-.133.321-.26.483-.384s.309-.233.466-.342.315-.219.476-.319a1.339,1.339,0,0,1,.147-.1c.149-.1.3-.188.456-.276a13.749,13.749,0,0,1,1.241-.646c.082-.039.166-.078.251-.114.225-.1.452-.192.685-.28L9.883.848c.1-.035.211-.075.319-.108.217-.074.44-.141.667-.2.108-.029.211-.059.319-.084.225-.059.454-.112.681-.156s.446-.086.675-.121c.133-.02.266-.039.4-.055a.426.426,0,0,1,.068-.008c.057-.01.112-.016.166-.02.164-.02.329-.035.5-.049l.286-.02c.1-.006.194-.01.292-.012s.192-.008.29-.01.192,0,.29,0c.2,0,.387,0,.579.014s.388.016.577.031c.168.014.335.029.5.049a1.589,1.589,0,0,1,.164.02c.157.018.313.039.47.063a15.076,15.076,0,0,0-2.29.544,14.839,14.839,0,0,0,0,28.226Z" fill="#ffda67"/>
        </g>
      </g>
      <g id="Group_613" data-name="Group 613" transform="translate(14.632 303.481) rotate(2)">
        <path id="Path_195" data-name="Path 195" d="M29.618,13.6c-.006-.1-.016-.192-.025-.288-.01-.123-.025-.247-.043-.37a14.708,14.708,0,0,0-1.671-5.184Q27.8,7.606,27.7,7.45c-.059-.105-.117-.205-.178-.307s-.127-.205-.192-.305c-.092-.145-.186-.284-.284-.425-.063-.09-.123-.178-.186-.264a14.381,14.381,0,0,0-1.538-1.8c-.084-.084-.168-.166-.254-.247a14.678,14.678,0,0,0-1.986-1.593c-.084-.059-.168-.113-.254-.166a11.693,11.693,0,0,0-1.084-.632c-.078-.043-.157-.084-.239-.123s-.192-.1-.29-.145-.2-.094-.3-.135c-.3-.137-.6-.262-.91-.376-.1-.039-.2-.074-.309-.11A14.066,14.066,0,0,0,17.825.3l-.29-.059C17.4.221,17.265.2,17.126.176s-.268-.039-.4-.057c-.023,0-.045-.006-.069-.006a1.614,1.614,0,0,0-.166-.02c-.162-.02-.329-.035-.5-.049l-.286-.02c-.094-.006-.192-.01-.29-.014s-.194-.006-.29-.01-.194,0-.292,0-.194,0-.29,0-.2,0-.29.01-.2.008-.29.014l-.288.02c-.168.014-.335.029-.5.049a1.616,1.616,0,0,0-.166.02c-.024,0-.045,0-.068.006-.133.018-.268.037-.4.057-.227.035-.448.074-.673.119s-.456.1-.681.157c-.108.026-.211.055-.319.084-.229.063-.45.127-.669.2-.108.031-.213.07-.319.108s-.215.076-.319.116c-.231.088-.46.184-.683.282-.086.035-.17.074-.253.113q-.64.294-1.241.644c-.153.088-.305.18-.456.278-.051.029-.1.063-.147.094-.159.1-.319.209-.476.319s-.313.225-.466.342-.325.251-.481.386c-.078.065-.157.129-.235.2l-.02.02c-.117.1-.235.2-.344.307l-.01.008c-.141.127-.274.258-.407.391-.043.039-.082.082-.121.123-.131.127-.251.258-.372.391-.159.176-.315.356-.466.538s-.3.372-.44.56c-.213.288-.417.579-.609.881-.127.2-.25.407-.372.612-.08.139-.158.28-.233.423s-.141.27-.209.407-.137.284-.2.427A14.577,14.577,0,0,0,.133,12.85a14.852,14.852,0,0,0,1.391,8.537c.069.135.137.27.209.407s.153.282.233.423c.121.205.245.411.372.613.094.151.2.3.3.442s.207.294.311.436c.145.19.292.376.44.562s.307.36.466.536c.121.135.245.264.372.391.039.043.078.084.121.123.133.135.266.264.407.391l.01.01c.11.1.227.209.344.307l.02.019c.078.067.157.133.235.2.286.241.583.47.888.687.072.049.147.1.221.151.047.033.092.064.137.094.137.092.274.182.415.264.114.074.231.143.348.211A14.728,14.728,0,0,0,9.564,28.7c.1.043.211.082.319.117.072.026.145.053.219.074q.161.056.323.106c.114.035.231.07.35.1s.229.065.346.094c.133.035.266.069.4.1.182.043.366.082.552.114.155.029.311.057.468.082.133.02.268.039.4.055a.4.4,0,0,0,.068.008,1.608,1.608,0,0,0,.166.019c.162.02.329.035.5.049.1.01.19.016.288.02s.192.01.29.012.192.01.29.01.192,0,.29,0,.2,0,.292,0,.194-.006.29-.01.2-.006.29-.012.192-.01.286-.02c.17-.014.337-.029.5-.049a1.606,1.606,0,0,0,.166-.019.4.4,0,0,0,.069-.008c.133-.016.266-.035.4-.055l.409-.068.29-.059a14.67,14.67,0,0,0,1.877-.515c.106-.035.209-.072.309-.112.311-.114.613-.237.91-.374.1-.043.2-.088.3-.137s.2-.094.29-.143.16-.082.239-.123q.561-.29,1.084-.632c.086-.053.17-.108.254-.166a14.972,14.972,0,0,0,1.986-1.593c.086-.082.17-.162.254-.248a14.69,14.69,0,0,0,1.812-2.2c.068-.1.133-.2.2-.3s.129-.2.192-.307.119-.2.178-.305.121-.209.176-.313c.174-.315.333-.638.483-.967.049-.108.1-.219.143-.329.139-.333.27-.675.387-1.02.039-.115.074-.229.112-.342s.07-.235.1-.352c.025-.088.049-.178.074-.266.039-.147.074-.294.108-.444.029-.119.055-.241.078-.36.074-.362.137-.728.182-1.1.018-.125.033-.249.043-.376.01-.094.02-.192.025-.29.035-.4.053-.81.053-1.225S29.653,14.006,29.618,13.6Zm-16.4.039h3.3a4.121,4.121,0,1,1,0,8.241h-.458v1.863a1.22,1.22,0,0,1-2.44,0V21.883h-1.5a3.054,3.054,0,0,1-3.053-3.051,1.22,1.22,0,1,1,2.44,0,.618.618,0,0,0,.613.609h4.394a1.678,1.678,0,1,0,0-3.356h-3.3c-5.349,0-5.736-8.241.4-8.241V5.889a1.22,1.22,0,1,1,2.44,0V7.844h1.556c3.112,0,4.049,4.274,1.832,4.274A1.221,1.221,0,0,1,18.224,10.9a.616.616,0,0,0-.611-.611H13.22a1.678,1.678,0,1,0,0,3.356Z" fill="#471b5b"/>
        <g id="Group_612" data-name="Group 612">
          <path id="Path_196" data-name="Path 196" d="M29.614,13.6c-.006-.1-.016-.192-.025-.288-.01-.123-.025-.247-.043-.37a14.709,14.709,0,0,0-1.671-5.184q-.082-.156-.176-.311c-.059-.105-.117-.205-.178-.307s-.127-.205-.192-.305c-.092-.145-.186-.284-.284-.425-.063-.09-.123-.178-.186-.264a14.382,14.382,0,0,0-1.538-1.8c-.084-.084-.168-.166-.254-.247a14.68,14.68,0,0,0-1.986-1.593c-.084-.059-.168-.113-.254-.166a11.7,11.7,0,0,0-1.084-.632c-.078-.043-.157-.084-.239-.123s-.192-.1-.29-.145-.2-.094-.3-.135c-.3-.137-.6-.262-.91-.376-.1-.039-.2-.074-.309-.11A14.062,14.062,0,0,0,17.821.3l-.29-.059c-.137-.023-.27-.047-.409-.068s-.268-.039-.4-.057c-.023,0-.045-.006-.069-.006a1.616,1.616,0,0,0-.166-.02c-.162-.02-.329-.035-.5-.049L15.7.025c-.094-.006-.192-.01-.29-.014s-.194-.006-.29-.01-.194,0-.292,0-.194,0-.29,0-.2,0-.29.01-.2.008-.29.014l-.288.02c-.168.014-.335.029-.5.049a1.616,1.616,0,0,0-.166.02c-.024,0-.045,0-.069.006-.133.018-.268.037-.4.057-.225.035-.448.074-.673.119s-.456.1-.681.157c-.108.026-.211.055-.319.084-.229.063-.45.127-.669.2-.108.031-.213.07-.319.108S9.664.924,9.56.963c-.231.088-.46.184-.683.282-.086.035-.17.074-.252.113q-.64.294-1.241.644c-.153.088-.305.18-.456.278-.051.029-.1.063-.147.094-.159.1-.319.209-.476.319s-.313.225-.466.342-.325.251-.481.386c-.078.065-.157.129-.235.2l-.02.02c-.117.1-.235.2-.344.307l-.01.008c-.141.127-.274.258-.407.391-.043.039-.082.082-.121.123-.131.127-.251.258-.372.391-.159.176-.315.356-.466.538s-.3.372-.44.56c-.213.288-.417.579-.609.881-.127.2-.25.407-.372.612-.08.139-.158.28-.233.423s-.141.27-.209.407-.137.284-.2.427A14.769,14.769,0,0,0,.129,12.85a15.277,15.277,0,0,0,0,3.965,14.833,14.833,0,0,0,1.391,4.572c.068.135.137.27.209.407s.153.282.233.423c.121.205.245.411.372.613.094.151.2.3.3.442s.207.294.311.436c.145.19.292.376.44.562s.307.36.466.536c.121.135.245.264.372.391.039.043.078.084.121.123.133.135.266.264.407.391l.01.01c.11.1.227.209.344.307l.02.019c.078.067.157.133.235.2.286.241.583.47.888.687.072.049.147.1.221.151.047.033.092.064.137.094.137.092.274.182.415.264.113.074.231.143.348.211A14.729,14.729,0,0,0,9.56,28.7c.1.043.211.082.319.117.072.026.145.053.219.074q.161.056.323.106c.113.035.231.07.35.1s.229.065.346.094c.133.035.266.069.4.1.182.043.366.082.552.114.155.029.311.059.468.082.133.02.268.039.4.055a.4.4,0,0,0,.069.008,1.607,1.607,0,0,0,.166.019c.162.02.329.035.5.049.1.01.19.016.288.02s.192.01.29.012.192.01.29.01.192,0,.29,0,.2,0,.292,0,.194-.006.29-.01.2-.006.29-.012.192-.01.286-.02c.17-.014.337-.029.5-.049a1.607,1.607,0,0,0,.166-.019.4.4,0,0,0,.069-.008c.133-.016.266-.035.4-.055l.409-.068.29-.059a14.666,14.666,0,0,0,1.877-.515c.106-.035.209-.072.309-.112.311-.114.613-.237.91-.374.1-.043.2-.088.3-.137s.2-.094.29-.143.16-.082.239-.123q.561-.29,1.084-.632c.086-.053.17-.108.254-.166a14.974,14.974,0,0,0,1.986-1.593c.086-.082.17-.162.254-.248a14.686,14.686,0,0,0,1.812-2.2c.068-.1.133-.2.2-.3s.129-.2.192-.307.119-.2.178-.305.121-.209.176-.313c.174-.315.333-.638.483-.967.049-.108.1-.219.143-.329.139-.333.27-.675.387-1.02.039-.115.074-.229.112-.342s.07-.235.1-.352c.025-.088.049-.178.074-.266.039-.147.074-.294.108-.444.029-.119.055-.241.078-.36.074-.362.137-.728.182-1.1.018-.125.033-.249.043-.376.01-.094.02-.192.025-.29.035-.4.053-.81.053-1.225S29.649,14.006,29.614,13.6Zm-16.4.039h3.3a4.121,4.121,0,1,1,0,8.241h-.458v1.863a1.22,1.22,0,0,1-2.44,0V21.883h-1.5a3.054,3.054,0,0,1-3.053-3.051,1.22,1.22,0,1,1,2.44,0,.618.618,0,0,0,.613.609h4.394a1.678,1.678,0,1,0,0-3.356h-3.3c-5.349,0-5.736-8.241.4-8.241V5.889a1.22,1.22,0,1,1,2.44,0V7.844h1.556c3.112,0,4.049,4.274,1.832,4.274A1.221,1.221,0,0,1,18.22,10.9a.616.616,0,0,0-.611-.611H13.216a1.678,1.678,0,1,0,0,3.356Z" transform="translate(0.004)" fill="#ffc71f"/>
          <path id="Path_197" data-name="Path 197" d="M17.126,14.834c0,.415-.018.822-.053,1.225-.006.1-.016.2-.025.29-.01.127-.025.25-.043.376-.045.37-.108.736-.182,1.1-.023.119-.049.241-.078.36-.033.151-.069.3-.108.444-.025.088-.049.178-.074.266-.033.117-.068.235-.1.352s-.072.227-.112.342c-.117.344-.249.687-.387,1.02-.045.11-.094.221-.143.329-.151.329-.309.652-.483.967-.055.1-.114.209-.176.313s-.117.205-.178.305-.127.206-.192.307-.127.2-.2.3a14.687,14.687,0,0,1-1.812,2.2c-.084.086-.168.166-.254.248a14.973,14.973,0,0,1-1.986,1.593c-.084.059-.168.114-.254.166q-.523.34-1.084.632c-.078.041-.157.084-.239.123s-.192.1-.29.143-.2.094-.3.137c-.3.137-.6.26-.91.374-.1.039-.2.076-.309.112a14.671,14.671,0,0,1-1.877.515l-.29.059-.409.068c-.135.02-.268.039-.4.055a.4.4,0,0,1-.069.008,1.607,1.607,0,0,1-.166.019c-.162.02-.329.035-.5.049-.094.01-.188.016-.286.02s-.192.01-.29.012-.194.01-.29.01-.194,0-.292,0c-.194,0-.388,0-.579-.014s-.388-.016-.577-.031c-.168-.014-.335-.029-.5-.049a1.607,1.607,0,0,1-.166-.019c-.157-.018-.313-.039-.47-.063a15,15,0,0,0,2.29-.544A14.833,14.833,0,0,0,12.545,14.834,14.839,14.839,0,0,0,2.29.72,14.553,14.553,0,0,0,0,.176C.157.153.313.129.47.114A1.616,1.616,0,0,1,.636.094C.8.074.965.059,1.133.045c.19-.016.382-.025.577-.033S2.1,0,2.29,0c.1,0,.2,0,.292,0s.194,0,.29.01.2.008.29.014l.286.02c.17.014.337.029.5.049a1.615,1.615,0,0,1,.166.02c.024,0,.045,0,.069.006.133.018.266.037.4.057s.272.045.409.068L5.28.3A14.067,14.067,0,0,1,7.157.818c.106.035.209.07.309.11.311.114.613.239.91.376.1.041.2.086.3.135s.2.1.29.145.16.08.239.123a11.7,11.7,0,0,1,1.084.632c.086.053.17.108.254.166A14.678,14.678,0,0,1,12.525,4.1c.086.08.17.162.254.247a14.379,14.379,0,0,1,1.538,1.8c.063.086.123.174.186.264.1.141.192.28.284.425.065.1.129.2.192.305s.119.2.178.307.121.208.176.311A14.708,14.708,0,0,1,17,12.946c.018.123.033.246.043.37.01.1.02.19.025.288C17.108,14.006,17.126,14.421,17.126,14.834Z" transform="translate(12.545)" fill="#f5b400"/>
          <path id="Path_198" data-name="Path 198" d="M14.834,28.946a15.026,15.026,0,0,0,2.292.544c-.157.023-.313.045-.47.063a1.606,1.606,0,0,1-.166.019c-.162.02-.329.035-.5.049-.188.016-.38.025-.575.031s-.386.014-.581.014c-.1,0-.194,0-.29,0s-.2-.006-.29-.01-.2-.006-.29-.012-.192-.01-.288-.02c-.168-.014-.335-.029-.5-.049a1.608,1.608,0,0,1-.166-.019.4.4,0,0,1-.068-.008c-.133-.016-.268-.035-.4-.055-.157-.026-.313-.053-.468-.082-.186-.031-.37-.07-.552-.114-.137-.029-.27-.063-.4-.1-.117-.029-.231-.061-.346-.094s-.237-.069-.35-.1-.215-.068-.323-.106c-.074-.021-.147-.049-.219-.074-.108-.035-.215-.074-.319-.117a14.728,14.728,0,0,1-2.192-1.049c-.117-.069-.235-.137-.348-.211-.141-.084-.278-.172-.415-.264-.045-.029-.09-.061-.137-.094-.074-.049-.149-.1-.221-.151-.305-.217-.6-.446-.888-.687-.078-.065-.157-.131-.235-.2l-.02-.019c-.117-.1-.235-.2-.344-.307l-.01-.01c-.141-.127-.274-.256-.407-.391-.043-.039-.082-.08-.121-.123-.127-.127-.251-.256-.372-.391-.159-.176-.315-.354-.466-.536s-.3-.372-.44-.562c-.1-.143-.207-.286-.311-.436s-.2-.292-.3-.442c-.127-.2-.25-.407-.372-.613-.08-.141-.158-.28-.233-.423s-.141-.272-.209-.407a14.847,14.847,0,0,1-.2-12.68c.065-.143.133-.284.2-.427s.137-.27.209-.407.153-.284.233-.423c.121-.205.245-.411.372-.612.192-.3.4-.593.609-.881.145-.188.292-.374.44-.56s.307-.362.466-.538c.121-.133.241-.264.372-.391.039-.041.078-.084.121-.123.133-.133.266-.264.407-.391l.01-.008c.11-.106.227-.209.344-.307l.02-.02c.078-.069.157-.133.235-.2.157-.135.319-.262.481-.386s.309-.231.466-.342.317-.217.476-.319c.047-.031.1-.064.147-.094.151-.1.3-.19.456-.278q.6-.349,1.241-.644c.082-.039.166-.078.253-.113.223-.1.452-.194.683-.282.1-.039.211-.078.319-.116S10.094.771,10.2.74c.219-.076.44-.141.669-.2.108-.029.211-.059.319-.084.225-.059.452-.11.681-.157s.446-.084.673-.119c.133-.02.268-.039.4-.057.023,0,.045-.006.068-.006a1.616,1.616,0,0,1,.166-.02c.162-.02.329-.035.5-.049l.288-.02c.094-.006.192-.01.29-.014s.192-.006.29-.01.192,0,.29,0c.2,0,.388,0,.581.012s.388.018.575.033c.17.014.337.029.5.049a1.614,1.614,0,0,1,.166.02c.157.016.313.039.47.063A14.578,14.578,0,0,0,14.834.72a14.839,14.839,0,0,0,0,28.226Z" fill="#ffda67"/>
        </g>
      </g>
      <g id="Group_614" data-name="Group 614" transform="translate(310.794 227.216)">
        <path id="Path_199" data-name="Path 199" d="M306.177,385.752h2.947v2.9a1.844,1.844,0,1,0,3.687,0v-2.9h2.9a1.844,1.844,0,1,0,0-3.687h-2.9v-2.947a1.844,1.844,0,1,0-3.687,0v2.947h-2.947a1.844,1.844,0,0,0,0,3.687Z" transform="translate(-304.333 -377.274)" fill="#ffc71f"/>
        <path id="Path_200" data-name="Path 200" d="M307.723,390.5a1.844,1.844,0,0,0,1.844-1.844v-2.9h2.9a1.844,1.844,0,1,0,0-3.687h-2.9v-2.947a1.844,1.844,0,0,0-1.844-1.844" transform="translate(-301.089 -377.274)" fill="#f5b400"/>
      </g>
      <g id="Group_615" data-name="Group 615" transform="translate(324.143 243.616)">
        <path id="Path_201" data-name="Path 201" d="M313.455,396.241h3.683v3.624a2.3,2.3,0,0,0,4.6,0v-3.624h3.624a2.3,2.3,0,1,0,0-4.6h-3.624v-3.683a2.3,2.3,0,1,0-4.6,0v3.683h-3.683a2.3,2.3,0,0,0,0,4.6Z" transform="translate(-311.154 -385.654)" fill="#ffc71f"/>
        <path id="Path_202" data-name="Path 202" d="M315.388,402.167a2.3,2.3,0,0,0,2.3-2.3v-3.624h3.624a2.3,2.3,0,0,0,0-4.6h-3.624v-3.683a2.3,2.3,0,0,0-2.3-2.3" transform="translate(-307.102 -385.654)" fill="#f5b400"/>
      </g>
      <g id="Group_616" data-name="Group 616" transform="translate(292.797 233.827)">
        <path id="Path_203" data-name="Path 203" d="M296.5,386.928h2.184v2.149a1.364,1.364,0,1,0,2.728,0v-2.149h2.147a1.364,1.364,0,1,0,0-2.728h-2.147v-2.184a1.364,1.364,0,0,0-2.728,0V384.2H296.5a1.364,1.364,0,1,0,0,2.728Z" transform="translate(-295.137 -380.652)" fill="#ffc71f"/>
        <path id="Path_204" data-name="Path 204" d="M297.647,390.441a1.364,1.364,0,0,0,1.364-1.364v-2.149h2.147a1.364,1.364,0,1,0,0-2.728h-2.147v-2.184a1.364,1.364,0,0,0-1.364-1.364" transform="translate(-292.735 -380.652)" fill="#f5b400"/>
      </g>
      <g id="Group_617" data-name="Group 617" transform="translate(341.711 228.932)">
        <path id="Path_205" data-name="Path 205" d="M321.5,384.427h2.182v2.149a1.364,1.364,0,0,0,2.728,0v-2.149h2.149a1.364,1.364,0,1,0,0-2.728h-2.149v-2.182a1.364,1.364,0,1,0-2.728,0V381.7H321.5a1.364,1.364,0,1,0,0,2.728Z" transform="translate(-320.131 -378.151)" fill="#ffc71f"/>
        <path id="Path_206" data-name="Path 206" d="M322.641,387.94a1.364,1.364,0,0,0,1.364-1.364v-2.149h2.149a1.364,1.364,0,0,0,0-2.728h-2.149v-2.182a1.366,1.366,0,0,0-1.364-1.366" transform="translate(-317.729 -378.151)" fill="#f5b400"/>
      </g>
      <g id="Group_618" data-name="Group 618" transform="translate(310.056 206.861)">
        <path id="Path_207" data-name="Path 207" d="M305.32,373.147H307.5V375.3a1.364,1.364,0,0,0,2.728,0v-2.149h2.149a1.364,1.364,0,0,0,0-2.728H310.23v-2.182a1.364,1.364,0,1,0-2.728,0v2.182H305.32a1.364,1.364,0,0,0,0,2.728Z" transform="translate(-303.956 -366.873)" fill="#ffc71f"/>
        <path id="Path_208" data-name="Path 208" d="M306.465,376.66a1.364,1.364,0,0,0,1.364-1.364v-2.149h2.149a1.364,1.364,0,1,0,0-2.728h-2.149v-2.182a1.364,1.364,0,0,0-1.364-1.364" transform="translate(-301.555 -366.873)" fill="#f5b400"/>
      </g>
    </g>
  </g>
</svg>
