<svg xmlns="http://www.w3.org/2000/svg" width="21.635" height="22.138" viewBox="0 0 21.635 22.138">
  <g id="Group_253" data-name="Group 253" transform="translate(-1109.025 -12.872)">
    <g id="Group_68" data-name="Group 68" transform="translate(1109.025 13.46)">
      <g id="Group_67" data-name="Group 67" transform="translate(0 0)">
        <path id="Path_8" data-name="Path 8" d="M175.207,375.132h0a3.1,3.1,0,1,0,6.2,0h-6.2Z" transform="translate(-168.16 -356.704)" fill="#f9f9f9"/>
        <path id="Path_9" data-name="Path 9" d="M60.248,50.7c-3.3.374-5.718,3.525-5.718,6.975a37.607,37.607,0,0,1,0,5.117,20.75,20.75,0,0,1-2.746,4.046,1.013,1.013,0,0,0-.085.117,1.426,1.426,0,0,0,.523,1.977,1.2,1.2,0,0,0,.619.165H70.445a1.2,1.2,0,0,0,.619-.166,1.426,1.426,0,0,0,.523-1.976,1.013,1.013,0,0,0-.086-.117,20.75,20.75,0,0,1-2.746-4.046c-.37-1.2,0-4.323,0-5.117,0-3.451-2.415-6.6-5.718-6.975-.347-.039-1.046-.088-1.395-.088S60.594,50.658,60.248,50.7Z" transform="translate(-51.493 -50.61)" fill="#f9f9f9"/>
      </g>
    </g>
    <g id="Oval_3" data-name="Oval 3" transform="translate(1121.586 13.872)" fill="#f9f9f9" stroke="#9100ff" stroke-miterlimit="10" stroke-width="1">
      <circle cx="4.037" cy="4.037" r="4.037" stroke="none"/>
      <circle cx="4.037" cy="4.037" r="4.537" fill="none"/>
    </g>
  </g>
</svg>
