<svg id="like" xmlns="http://www.w3.org/2000/svg" width="15.402" height="15.844" viewBox="0 0 15.402 15.844">
  <path id="Path_42" data-name="Path 42" d="M21.615,10.772a1.968,1.968,0,0,0,.461-1.315,2.021,2.021,0,0,0-.431-1.14,1.771,1.771,0,0,0-.421-2.038,3.659,3.659,0,0,0-2.661-.636,10.4,10.4,0,0,0-1.63.209h0c-.166.03-.341.066-.52.106a5.78,5.78,0,0,1,.414-1.925c.464-1.411.437-2.492-.086-3.214A2.106,2.106,0,0,0,15.051,0a.832.832,0,0,0-.639.292,2.229,2.229,0,0,0-.278,1.58c-.437,1.173-1.663,4.049-2.7,4.847a.355.355,0,0,0-.053.046,3.559,3.559,0,0,0-.649.974,1.367,1.367,0,0,0-.656-.166H8.053A1.379,1.379,0,0,0,6.675,8.953v5.384a1.379,1.379,0,0,0,1.378,1.378h2.021a1.375,1.375,0,0,0,.8-.252l.779.093a33.36,33.36,0,0,0,4.417.242c.394.03.765.046,1.11.046a7.434,7.434,0,0,0,1.541-.139,2.881,2.881,0,0,0,2.058-1.279A2.028,2.028,0,0,0,21,13.157a2.113,2.113,0,0,0,.752-1.72A2.238,2.238,0,0,0,21.615,10.772ZM8.053,14.821a.484.484,0,0,1-.484-.484V8.949a.484.484,0,0,1,.484-.484h2.021a.484.484,0,0,1,.484.484v5.384a.484.484,0,0,1-.484.484H8.053Zm12.713-4.437a.445.445,0,0,0-.06.54,1.379,1.379,0,0,1,.152.553,1.326,1.326,0,0,1-.623,1.146.451.451,0,0,0-.152.51,1.17,1.17,0,0,1-.089.855,2.073,2.073,0,0,1-1.464.842,8.729,8.729,0,0,1-2.415.073h-.046a32.705,32.705,0,0,1-4.307-.235h0l-.335-.04a1.4,1.4,0,0,0,.03-.292V8.949a1.4,1.4,0,0,0-.063-.411A2.769,2.769,0,0,1,12.006,7.4c1.488-1.18,2.942-5.159,3.005-5.331a.42.42,0,0,0,.02-.222,2.071,2.071,0,0,1,.043-.961,1.189,1.189,0,0,1,.934.447,2.822,2.822,0,0,1-.04,2.409c-.557,1.686-.6,2.574-.162,2.965a.722.722,0,0,0,.722.129c.2-.046.394-.086.577-.116l.043-.01c1.017-.222,2.84-.358,3.472.219a.953.953,0,0,1,.113,1.209.443.443,0,0,0,.08.577,1.255,1.255,0,0,1,.368.772A1.23,1.23,0,0,1,20.767,10.384Z" transform="translate(-6.675 0)" fill="#2b2b2b"/>
</svg>
