<svg xmlns="http://www.w3.org/2000/svg" width="30.914" height="30.914" viewBox="0 0 30.914 30.914">
  <path id="linkedin" d="M15.457,0A15.457,15.457,0,1,0,30.914,15.457,15.459,15.459,0,0,0,15.457,0ZM10.965,23.367H7.2V12.041h3.765ZM9.083,10.495H9.059a1.962,1.962,0,1,1,.05-3.913,1.963,1.963,0,1,1-.025,3.913ZM24.539,23.367H20.775V17.308c0-1.523-.545-2.561-1.907-2.561a2.061,2.061,0,0,0-1.931,1.377,2.578,2.578,0,0,0-.124.919v6.325H13.049s.049-10.263,0-11.326h3.764v1.6a3.737,3.737,0,0,1,3.393-1.869c2.477,0,4.334,1.619,4.334,5.1Zm0,0" fill="#efeef2"/>
</svg>
