<svg xmlns="http://www.w3.org/2000/svg" width="29.4" height="21.583" viewBox="0 0 29.4 21.583">
  <g id="menu-button" transform="translate(0 -76.5)">
    <g id="menu" transform="translate(0 76.5)">
      <path id="Path_117" data-name="Path 117" d="M1.633,98.083H27.767a1.721,1.721,0,0,0,1.633-1.8h0a1.721,1.721,0,0,0-1.633-1.8H1.633A1.721,1.721,0,0,0,0,96.285H0A1.721,1.721,0,0,0,1.633,98.083Zm0-8.993H27.767a1.721,1.721,0,0,0,1.633-1.8h0a1.721,1.721,0,0,0-1.633-1.8H1.633A1.721,1.721,0,0,0,0,87.292H0A1.721,1.721,0,0,0,1.633,89.09ZM0,78.3H0a1.721,1.721,0,0,0,1.633,1.8H27.767A1.721,1.721,0,0,0,29.4,78.3h0a1.721,1.721,0,0,0-1.633-1.8H1.633A1.721,1.721,0,0,0,0,78.3Z" transform="translate(0 -76.5)" fill="#f9f9f9"/>
    </g>
  </g>
</svg>
