<svg xmlns="http://www.w3.org/2000/svg" xmlns:xlink="http://www.w3.org/1999/xlink" width="18.314" height="18.314" viewBox="0 0 18.314 18.314">
  <defs>
    <clipPath id="clip-path">
      <rect width="18.314" height="18.314" fill="none"/>
    </clipPath>
  </defs>
  <g id="search" clip-path="url(#clip-path)">
    <g id="search-2" data-name="search" transform="translate(0 7.044) rotate(-45)" fill="none" stroke-miterlimit="10">
      <path d="M4.649,15.938V10.626h.664v5.313ZM0,4.98A4.981,4.981,0,1,1,4.98,9.962,4.981,4.981,0,0,1,0,4.98Z" stroke="none"/>
      <path d="M 4.980452060699463 8.961503028869629 C 7.175611972808838 8.961503028869629 8.961502075195313 7.175613403320313 8.961502075195313 4.980453491210938 C 8.961502075195313 2.78562331199646 7.175611972808838 1.000003337860107 4.980452060699463 1.000003337860107 C 2.785621881484985 1.000003337860107 1.000002026557922 2.78562331199646 1.000002026557922 4.980453491210938 C 1.000002026557922 7.175613403320313 2.785621881484985 8.961503028869629 4.980452060699463 8.961503028869629 M 5.312761783599854 15.93828296661377 L 4.648742198944092 15.93828296661377 L 4.648742198944092 10.62552356719971 L 5.312761783599854 10.62552356719971 L 5.312761783599854 15.93828296661377 Z M 4.980452060699463 9.961503028869629 C 2.229942083358765 9.961503028869629 1.991272029044922e-06 7.731563568115234 1.991272029044922e-06 4.980453491210938 C 1.991272029044922e-06 2.229933500289917 2.229942083358765 3.390655592738767e-06 4.980452060699463 3.390655592738767e-06 C 7.73156213760376 3.390655592738767e-06 9.961502075195313 2.229933500289917 9.961502075195313 4.980453491210938 C 9.961502075195313 7.731563568115234 7.73156213760376 9.961503028869629 4.980452060699463 9.961503028869629 Z" stroke="none" fill="#d8d8d8"/>
    </g>
  </g>
</svg>
