<svg xmlns="http://www.w3.org/2000/svg" width="22.382" height="22.263" viewBox="0 0 22.382 22.263">
  <g id="search_1_" data-name="search (1)" transform="translate(-0.001 0)">
    <path id="Path_116" data-name="Path 116" d="M14.948,2.547a8.8,8.8,0,0,0-12.387,0,8.691,8.691,0,0,0,0,12.321,8.8,8.8,0,0,0,11.189.987,1.831,1.831,0,0,0,.5.923l4.973,4.946a1.856,1.856,0,0,0,2.617,0,1.831,1.831,0,0,0,0-2.6l-4.973-4.947a1.853,1.853,0,0,0-.927-.5A8.685,8.685,0,0,0,14.948,2.547Zm-1.57,10.759a6.571,6.571,0,0,1-9.247,0,6.489,6.489,0,0,1,0-9.2,6.572,6.572,0,0,1,9.247,0A6.486,6.486,0,0,1,13.378,13.307Z" fill="#f9f9f9"/>
  </g>
</svg>
