<svg id="Group_76" data-name="Group 76" xmlns="http://www.w3.org/2000/svg" width="30.815" height="21.583" viewBox="0 0 30.815 21.583">
  <path id="Path_26" data-name="Path 26" d="M60.529,74.906,62.3,71.723a.606.606,0,0,0-.623-.882l-3.75.409a.345.345,0,0,0-.257.541l.2.285a.417.417,0,0,1-.137.607L38.821,83.6a1.049,1.049,0,0,0-.382,1.471h0a1.141,1.141,0,0,0,1.53.367L59.042,74.427a.455.455,0,0,1,.594.124l.277.388A.369.369,0,0,0,60.529,74.906Z" transform="translate(-38.28 -70.837)" fill="#f9f9f9"/>
  <path id="Path_27" data-name="Path 27" d="M40.509,103.679H68.284a1.461,1.461,0,0,0,1.461-1.461V85.569a1.461,1.461,0,0,0-2.212-1.253L39.758,100.965A1.461,1.461,0,0,0,40.509,103.679Z" transform="translate(-38.929 -82.096)" fill="#f9f9f9"/>
</svg>
