<svg xmlns="http://www.w3.org/2000/svg" width="30.914" height="30.914" viewBox="0 0 30.914 30.914">
  <path id="twitter" d="M15.457,0A15.457,15.457,0,1,0,30.914,15.457,15.459,15.459,0,0,0,15.457,0Zm7.058,12.052q.01.228.01.459A10.026,10.026,0,0,1,12.43,22.6h0a10.042,10.042,0,0,1-5.438-1.594,7.216,7.216,0,0,0,.846.049,7.119,7.119,0,0,0,4.407-1.519A3.552,3.552,0,0,1,8.93,17.077a3.536,3.536,0,0,0,1.6-.061,3.549,3.549,0,0,1-2.846-3.478c0-.016,0-.03,0-.045a3.523,3.523,0,0,0,1.607.444A3.551,3.551,0,0,1,8.2,9.2a10.073,10.073,0,0,0,7.313,3.707,3.55,3.55,0,0,1,6.046-3.235,7.116,7.116,0,0,0,2.253-.861,3.562,3.562,0,0,1-1.56,1.962,7.076,7.076,0,0,0,2.037-.559,7.21,7.21,0,0,1-1.77,1.837Zm0,0" fill="#efeef2"/>
</svg>
