<svg id="view" xmlns="http://www.w3.org/2000/svg" width="15.64" height="9.969" viewBox="0 0 15.64 9.969">
  <g id="Group_102" data-name="Group 102">
    <g id="Group_101" data-name="Group 101" transform="translate(0 0)">
      <path id="Path_49" data-name="Path 49" d="M15.541,97.515c-.14-.191-3.469-4.68-7.721-4.68S.239,97.324.1,97.515a.516.516,0,0,0,0,.609c.14.191,3.469,4.68,7.721,4.68s7.581-4.489,7.721-4.68A.515.515,0,0,0,15.541,97.515ZM7.82,101.772c-3.132,0-5.845-2.979-6.648-3.953.8-.975,3.509-3.953,6.648-3.953s5.844,2.979,6.648,3.953C13.666,98.794,10.959,101.772,7.82,101.772Z" transform="translate(0 -92.835)" fill="#a6a7a8"/>
    </g>
  </g>
  <g id="Group_104" data-name="Group 104" transform="translate(4.726 1.891)">
    <g id="Group_103" data-name="Group 103" transform="translate(0 0)">
      <path id="Path_50" data-name="Path 50" d="M157.816,154.725a3.094,3.094,0,1,0,3.094,3.094A3.1,3.1,0,0,0,157.816,154.725Zm0,5.156a2.062,2.062,0,1,1,2.062-2.062A2.065,2.065,0,0,1,157.816,159.881Z" transform="translate(-154.722 -154.725)" fill="#a6a7a8"/>
    </g>
  </g>
</svg>
