<svg id="whatsapp" xmlns="http://www.w3.org/2000/svg" width="30.914" height="30.914" viewBox="0 0 30.914 30.914">
  <path id="Path_68" data-name="Path 68" d="M15.457,0A15.457,15.457,0,1,0,30.914,15.457,15.459,15.459,0,0,0,15.457,0Zm.328,24.457h0a9.248,9.248,0,0,1-4.421-1.126l-4.9,1.286,1.313-4.793a9.252,9.252,0,1,1,8.017,4.632Zm0,0" fill="#efeef2"/>
  <path id="Path_69" data-name="Path 69" d="M141.764,124.469a7.69,7.69,0,0,0-6.517,11.777l.183.291-.777,2.837,2.91-.763.281.167a7.677,7.677,0,0,0,3.914,1.072h0a7.69,7.69,0,0,0,0-15.379Zm4.523,10.991a2.382,2.382,0,0,1-1.56,1.1,3.172,3.172,0,0,1-1.456-.092,13.346,13.346,0,0,1-1.318-.487A10.3,10.3,0,0,1,138,132.491a4.5,4.5,0,0,1-.944-2.391,2.591,2.591,0,0,1,.809-1.928.85.85,0,0,1,.617-.289c.154,0,.308,0,.443.008s.333-.054.52.4.655,1.6.713,1.716a.426.426,0,0,1,.019.4,6.589,6.589,0,0,1-.578.79c-.1.127-.236.24-.1.472a6.968,6.968,0,0,0,1.286,1.6,6.319,6.319,0,0,0,1.859,1.147c.231.116.366.1.5-.058s.578-.675.732-.906.308-.193.52-.116,1.348.636,1.58.752.385.174.443.27a1.928,1.928,0,0,1-.135,1.1Zm0,0" transform="translate(-125.976 -116.954)" fill="#efeef2"/>
</svg>
